<svg width="429" height="474" viewBox="0 0 429 474" fill="none" xmlns="http://www.w3.org/2000/svg">
<rect width="335.985" height="400.11" transform="translate(103.556) rotate(15)" fill="#D9D9D9"/>
<path d="M116.16 351.845L119.887 337.936L218.643 364.397L194.308 323.775L214.303 329.132L240.734 372.366L238.031 382.451L193.525 406.677L173.53 401.319L214.916 378.307L116.16 351.845Z" fill="#F5F5F5"/>
<path d="M310.243 160.812L361.341 174.503L357.709 188.058L343.396 187.183L342.617 187.136L342.9 187.862C345.708 195.118 346.213 203.515 344.021 211.696C341.014 222.919 333.963 231.475 324.369 236.348C314.77 241.223 302.594 242.426 289.327 238.872C284.39 237.549 280.065 235.887 276.171 233.591L275.993 233.487L275.793 233.538C271.389 234.665 267.789 236.878 266.828 240.463C266.015 243.497 266.972 246.221 268.787 248.557C270.594 250.882 273.276 252.859 276.014 254.456C278.758 256.056 281.592 257.295 283.737 258.133C284.811 258.552 285.714 258.872 286.35 259.088C286.667 259.195 286.918 259.277 287.09 259.332C287.176 259.359 287.243 259.38 287.288 259.394C287.31 259.401 287.327 259.406 287.339 259.409L287.358 259.414L287.364 259.417C299.785 262.998 311.673 269.151 319.681 277.23C327.677 285.298 331.777 295.25 328.761 306.508C325.519 318.608 316.504 325.998 305.084 329.524C293.65 333.054 279.836 332.697 267.129 329.292L267.014 329.261C252.235 325.281 240.238 318.095 232.619 309.387C224.984 300.661 221.761 290.433 224.465 280.339C228.006 267.124 239.296 260.152 254.595 258.463L255.754 258.335L254.863 257.583C248.337 252.084 245.022 245.26 247.112 237.463C249.078 230.123 255.207 225.573 262.971 223.652L263.741 223.461L263.236 222.849C255.306 213.215 252.576 200.978 256.022 188.117C261.962 165.948 284.203 153.834 310.243 160.812ZM281.33 276.292C272.652 273.966 264.26 273.245 257.612 274.62C250.952 275.997 245.97 279.502 244.32 285.659C243.468 288.837 243.686 291.764 244.781 294.434C245.874 297.095 247.828 299.472 250.407 301.583C255.558 305.797 263.279 309.009 271.942 311.33C279.795 313.434 288.106 314.196 294.869 312.953C301.629 311.712 306.964 308.435 308.588 302.372C310.11 296.694 307.817 291.367 302.916 286.89C298.109 282.5 290.749 278.876 281.813 276.424L281.813 276.421L281.33 276.292ZM305.811 177.356C292.583 173.812 279.277 179.809 275.642 193.375C272.008 206.939 280.532 218.788 293.76 222.332C307.229 225.941 320.296 219.876 323.93 206.314C327.564 192.751 319.28 180.965 305.811 177.356Z" stroke="white"/>
<path d="M197.465 256.115C188.906 288.058 164.069 302.197 130.943 293.321C96.3988 284.065 89.0107 260.53 88.1368 252.434L108.418 247.726C110.129 255.537 115.177 269.824 135.761 275.339C156.11 280.791 171.335 269.401 177.231 247.396L182.176 228.941C170.76 236.533 155.543 240.317 141.111 236.45C106.802 227.257 93.1105 196.96 101.352 166.202C109.594 135.444 137.17 113.921 171.479 123.114C185.911 126.981 197.196 137.868 203.288 150.151L210.468 136.606L228.214 141.361L197.465 256.115ZM149.022 218.282C163.456 222.149 176.968 217.149 187.121 210.486L198.342 168.607C192.88 157.761 183.679 146.672 169.246 142.805C147.005 136.845 129.318 149.858 123.358 172.1C117.398 194.341 126.781 212.322 149.022 218.282Z" fill="black"/>
</svg>
