<svg width="429" height="474" viewBox="0 0 429 474" fill="none" xmlns="http://www.w3.org/2000/svg">
<rect width="335.985" height="400.11" transform="translate(103.556) rotate(15)" fill="#D9D9D9"/>
<path d="M237.588 384.382L241.315 370.473L142.559 344.011L183.945 320.999L163.951 315.641L119.444 339.867L116.742 349.952L143.173 393.186L163.167 398.543L138.832 357.921L237.588 384.382Z" fill="#F5F5F5"/>
<path d="M266.996 329.776C237.183 321.787 218.464 300.795 223.98 280.21C227.593 266.723 239.121 259.667 254.538 257.966C247.918 252.388 244.47 245.379 246.625 237.333C248.654 229.761 254.971 225.115 262.848 223.167C254.812 213.406 252.049 201.001 255.536 187.987C261.559 165.509 284.107 153.292 310.369 160.329L361.951 174.15L358.083 188.583L343.363 187.682C346.21 195.038 346.72 203.544 344.501 211.825C338.415 234.539 315.932 246.519 289.194 239.355C284.227 238.024 279.858 236.347 275.914 234.022C271.558 235.137 268.196 237.28 267.308 240.592C264.265 251.951 287.499 258.936 287.499 258.936C312.452 266.129 335.39 283.686 329.24 306.638C322.646 331.247 292.549 336.622 266.997 329.775L266.996 329.776ZM281.198 276.775C263.925 272.147 247.97 273.958 244.8 285.788C241.503 298.092 254.796 306.219 272.068 310.847C287.683 315.031 304.996 313.837 308.102 302.243C311.018 291.36 299.417 281.658 281.198 276.776L281.198 276.775ZM276.122 193.505C272.572 206.754 280.874 218.363 293.886 221.849C307.137 225.4 319.893 219.435 323.444 206.184C326.994 192.934 318.929 181.39 305.679 177.839C292.666 174.353 279.673 180.253 276.122 193.505Z" fill="black"/>
<path d="M171.345 123.596C185.614 127.419 196.795 138.193 202.835 150.373L203.269 151.246L203.725 150.384L210.719 137.19L227.597 141.713L196.978 255.985C192.725 271.855 184.446 283.249 173.168 289.588C161.888 295.928 147.537 297.251 131.068 292.838C97.3692 283.808 89.7566 261.135 88.685 252.817L108.038 248.324C108.935 252.233 110.669 257.597 114.613 262.698C118.73 268.025 125.233 273.036 135.628 275.821C145.925 278.58 154.973 277.085 162.196 272.074C169.407 267.071 174.74 258.605 177.709 247.525L182.997 227.79L181.895 228.523C170.576 236.051 155.505 239.789 141.235 235.966C124.205 231.403 112.323 221.614 105.712 209.177C99.098 196.735 97.7384 181.604 101.831 166.33C110.016 135.782 137.357 114.489 171.345 123.596ZM198.87 168.552L198.784 168.381C193.288 157.468 183.996 146.24 169.372 142.321C158.122 139.307 147.99 141.086 139.915 146.46C131.848 151.829 125.875 160.756 122.87 171.97C119.865 183.185 120.716 193.379 125.172 201.536C129.629 209.696 137.66 215.755 148.889 218.764C163.513 222.682 177.174 217.608 187.39 210.904L187.55 210.799L198.87 168.552Z" stroke="white"/>
</svg>
