<svg width="429" height="474" viewBox="0 0 429 474" fill="none" xmlns="http://www.w3.org/2000/svg">
<rect width="335.985" height="400.11" transform="translate(0 86.9593) rotate(-15)" fill="#DEDEDE"/>
<path d="M121.515 159.526C135.542 155.768 150.33 159.447 161.427 166.826L157.668 152.798L178.135 147.314L206.85 254.477L189.602 259.098L181.885 243.173C177.406 254.972 166.196 268.326 151.708 272.209C118.363 281.143 91.4999 259.998 83.4894 230.102C75.4789 200.206 88.1698 168.461 121.515 159.526ZM177.078 225.236L166.233 184.763C156.365 178.289 143.232 173.426 129.204 177.185C107.588 182.977 99.0855 202.755 104.878 224.372C110.67 245.989 127.922 258.866 149.539 253.074C163.567 249.315 171.77 235.778 177.078 225.236Z" fill="#1D1D1B"/>
<path d="M255.716 124.086C269.553 120.378 280.855 121.087 289.778 126.716C298.71 132.351 305.368 142.985 309.758 159.37L320.356 198.923C321.196 202.056 322.35 204.522 324.037 206.016C325.762 207.544 327.974 207.997 330.747 207.254C331.816 206.968 332.788 206.581 333.49 206.267C333.716 206.166 333.914 206.072 334.08 205.991L337.826 219.973C337.664 220.067 337.443 220.196 337.168 220.349C336.535 220.702 335.62 221.192 334.499 221.737C332.253 222.828 329.188 224.136 325.895 225.019C317.669 227.223 312.326 224.866 309.032 222.002C307.374 220.561 306.223 218.98 305.487 217.759C305.12 217.15 304.857 216.632 304.687 216.268C304.601 216.087 304.54 215.943 304.5 215.847C304.48 215.799 304.465 215.762 304.456 215.739C304.451 215.727 304.448 215.718 304.446 215.713C304.445 215.711 304.444 215.709 304.443 215.708L304.443 215.707L304.058 214.675L303.535 215.645C297.99 225.914 287.11 235.411 275.532 238.514C264.466 241.479 254.506 240.847 246.677 237.067C238.857 233.292 233.11 226.353 230.495 216.594C228.105 207.675 229.011 200.222 232.081 193.944C235.157 187.654 240.424 182.502 246.822 178.233C259.628 169.688 276.835 164.765 289.606 161.343L290.089 161.213L289.96 160.731C287.506 151.571 283.468 145.781 278.188 142.782C272.909 139.784 266.492 139.636 259.406 141.535C248.445 144.472 242.7 150.893 239.707 156.592C238.213 159.436 237.406 162.096 236.972 164.046C236.756 165.021 236.632 165.82 236.562 166.378C236.549 166.483 236.54 166.58 236.53 166.668L219.092 162.482C219.124 162.271 219.17 161.987 219.234 161.638C219.386 160.808 219.641 159.607 220.053 158.137C220.877 155.195 222.325 151.178 224.818 146.88C229.799 138.294 238.961 128.576 255.716 124.086ZM292.745 175.982C292.421 176.071 291.949 176.201 291.358 176.367C290.178 176.699 288.523 177.174 286.624 177.744C282.827 178.884 278.043 180.412 274.122 181.958L274.122 181.959C268.321 184.254 260.884 187.609 255.444 192.469C249.984 197.346 246.486 203.793 248.738 212.197C251.053 220.838 261.412 225.094 271.461 222.401C277.299 220.837 283.405 217.326 288.304 212.711C293.202 208.099 296.936 202.343 297.957 196.267L297.959 196.255C298.036 195.723 297.953 194.761 297.776 193.546C297.596 192.306 297.305 190.731 296.931 188.931C296.182 185.33 295.093 180.806 293.859 176.2L293.73 175.717L293.118 175.881C293.033 175.904 292.907 175.938 292.745 175.982Z" stroke="white"/>
<path d="M175.731 336.578L172.004 322.669L270.761 296.207L229.374 273.194L249.369 267.837L293.876 292.063L296.578 302.147L270.147 345.381L250.152 350.739L274.488 310.116L175.731 336.578Z" fill="#F5F5F5"/>
</svg>
