<svg width="429" height="474" viewBox="0 0 429 474" fill="none" xmlns="http://www.w3.org/2000/svg">
<rect width="335.985" height="400.11" transform="translate(0 86.9593) rotate(-15)" fill="#DEDEDE"/>
<path d="M121.644 160.009C135.508 156.294 150.151 159.928 161.151 167.242L162.253 167.975L158.281 153.151L177.782 147.926L206.238 254.123L189.872 258.508L182.335 242.956L181.828 241.911L181.417 242.996C176.979 254.691 165.869 267.896 151.578 271.725C118.556 280.574 91.9273 259.661 83.9723 229.972C76.0174 200.284 88.6219 168.857 121.644 160.009ZM166.667 184.45L166.508 184.345C156.576 177.829 143.294 172.893 129.075 176.702C118.136 179.633 110.484 186.116 106.313 194.624C102.147 203.123 101.474 213.6 104.395 224.501C107.316 235.403 113.137 244.14 120.995 249.417C128.861 254.7 138.729 256.488 149.668 253.557C163.933 249.734 172.221 235.994 177.525 225.461L177.61 225.29L166.667 184.45Z" stroke="white"/>
<path d="M338.408 220.211C338.408 220.211 332.693 223.715 326.024 225.502C309.236 230.001 303.975 215.882 303.975 215.882C298.374 226.256 287.39 235.854 275.662 238.997C253.356 244.974 235.311 236.499 230.012 216.723C220.337 180.618 263.952 167.699 289.477 160.86C284.609 142.694 273.563 138.259 259.535 142.018C237.918 147.81 236.976 167.288 236.976 167.288L218.536 162.863C218.536 162.863 221.782 132.661 255.587 123.603C283.413 116.147 301.43 126.355 310.241 159.24L320.839 198.793C322.503 205.002 325.329 208.189 330.618 206.771C332.688 206.217 334.403 205.265 334.403 205.265L338.408 220.211ZM274.306 182.424C262.717 187.008 244.845 195.739 249.221 212.068C251.439 220.347 261.443 224.567 271.332 221.918C282.83 218.837 295.469 208.056 297.464 196.184C297.723 194.39 295.841 185.528 293.377 176.329C293.377 176.329 282.108 179.347 274.306 182.424Z" fill="#1D1D1B"/>
<path d="M297.159 304.041L293.432 290.132L194.676 316.594L219.012 275.971L199.017 281.328L172.586 324.562L175.288 334.647L219.795 358.873L239.79 353.515L198.403 330.503L297.159 304.041Z" fill="#F5F5F5"/>
</svg>
