<svg width="17" height="17" viewBox="0 0 17 17" fill="none" xmlns="http://www.w3.org/2000/svg">
<path d="M8.70508 4.12695C10.5951 4.12695 11.6934 5.33271 12.1074 6.17871L10.8838 6.95215C10.5418 6.35816 9.89304 5.56641 8.70508 5.56641C7.08535 5.56656 6.006 6.8444 6.00586 8.53613C6.00586 10.228 7.08524 11.4881 8.70508 11.4883C9.89308 11.4883 10.5418 10.6965 10.8838 10.1025L12.1074 10.877C11.6933 11.7229 10.5948 12.9463 8.70508 12.9463C5.98725 12.9461 4.33105 10.966 4.33105 8.53613C4.33121 6.10637 5.98738 4.1271 8.70508 4.12695Z" fill="black"/>
<path fill-rule="evenodd" clip-rule="evenodd" d="M8.5 0C13.1944 0 17 3.80558 17 8.5C17 13.1944 13.1944 17 8.5 17C3.80558 17 0 13.1944 0 8.5C0 3.80558 3.80558 0 8.5 0ZM8.5 1.59961C4.68924 1.59961 1.59961 4.68924 1.59961 8.5C1.59961 12.3108 4.68924 15.4004 8.5 15.4004C12.3108 15.4004 15.4004 12.3108 15.4004 8.5C15.4004 4.68924 12.3108 1.59961 8.5 1.59961Z" fill="black"/>
</svg>
