<svg width="761" height="441" viewBox="0 0 761 441" fill="none" xmlns="http://www.w3.org/2000/svg">
<path d="M640.094 92.0694V70.4694H662.504V34.5594L686.264 18.3594V70.4694H715.424V92.0694H686.264V157.409C686.264 167.669 691.934 175.499 705.974 175.499C711.104 175.499 715.424 174.419 715.424 174.419V194.669C713.804 195.479 706.784 197.639 700.034 197.639C678.704 197.639 662.504 185.489 662.504 164.699V92.0694H640.094Z" fill="white"/>
<path d="M495.051 196.289V0.808594H519.081V85.0486C525.291 78.8386 539.871 67.2286 561.471 67.2286C588.471 67.2286 605.751 82.6186 605.751 109.079V196.289H581.721V113.939C581.721 97.7386 572.541 88.8286 557.151 88.8286C544.461 88.8286 530.421 95.8486 519.081 107.999V196.289H495.051Z" fill="white"/>
<path d="M449.093 70.4685V201.419C449.093 237.869 426.683 260.009 388.883 260.009C349.463 260.009 334.883 237.059 331.643 228.689L351.893 217.889C355.943 225.719 365.393 239.489 388.883 239.489C412.103 239.489 425.063 223.019 425.063 197.909V176.849C415.073 188.189 399.953 196.559 383.483 196.559C344.333 196.559 321.113 168.209 321.113 133.109C321.113 98.0085 344.333 67.2285 383.483 67.2285C399.953 67.2285 415.073 75.5985 425.063 86.9385L428.843 70.4685H449.093ZM346.223 133.109C346.223 158.489 361.343 174.959 386.723 174.959C403.193 174.959 416.153 165.779 425.063 155.789V107.999C416.153 98.0085 403.193 88.8285 386.723 88.8285C361.343 88.8285 346.223 107.729 346.223 133.109Z" fill="white"/>
<path d="M258.813 196.289V70.4686H282.843V196.289H258.813ZM254.223 24.0286C254.223 14.8486 261.513 7.55859 270.693 7.55859C280.143 7.55859 287.433 14.8486 287.433 24.0286C287.433 33.2086 280.143 40.4986 270.693 40.4986C261.513 40.4986 254.223 33.2086 254.223 24.0286Z" fill="white"/>
<path d="M102.671 70.47V49.41C102.671 21.06 113.741 0 145.871 0C155.591 0 162.611 4.59001 162.611 4.59001V25.92C162.611 25.92 157.211 20.79 148.571 20.79C132.911 20.79 126.971 33.21 126.971 56.7V70.47H188.261V0.810006H212.291V196.29H188.261V92.07H126.971V196.29H102.671V92.07H76.2109V70.47H102.671Z" fill="white"/>
<path d="M685.264 157.409V91.0693H714.423V71.4688H685.264V20.25L663.503 35.0879V71.4688H641.094V91.0693H663.503V164.699C663.503 174.811 667.432 182.761 673.912 188.199C680.411 193.653 689.55 196.639 700.033 196.639V197.639C679.036 197.639 663.011 185.866 662.516 165.667L662.503 164.699V92.0693H640.094V70.4688H662.503V34.5586L686.264 18.3594V70.4688H715.423V92.0693H686.264V157.409L686.268 157.889C686.44 167.753 691.973 175.257 705.321 175.493L705.974 175.499C711.074 175.499 715.374 174.431 715.423 174.419V194.669C713.802 195.479 706.783 197.639 700.033 197.639V196.639C703.31 196.639 706.675 196.114 709.429 195.483C711.671 194.97 713.451 194.398 714.423 194.013V175.654C713.975 175.742 713.42 175.846 712.777 175.947C711.022 176.223 708.605 176.499 705.974 176.499C698.77 176.499 693.551 174.486 690.139 171.001C686.731 167.521 685.264 162.716 685.264 157.409Z" fill="black"/>
<path d="M604.751 109.079C604.751 96.0751 600.511 85.897 593.055 78.9639C585.589 72.0218 574.785 68.2295 561.471 68.2295C540.245 68.2295 525.905 79.6388 519.788 85.7559L518.081 87.4629V1.80859H496.051V195.289H518.081V107.604L518.35 107.316C529.82 95.027 544.107 87.8292 557.15 87.8291C565.037 87.8291 571.463 90.1152 575.917 94.6045C580.37 99.0931 582.721 105.653 582.721 113.939V195.289H604.751V109.079ZM519.081 196.289H495.051V0.808594H519.081V85.0488C525.291 78.8387 539.871 67.2295 561.471 67.2295L562.729 67.2402C589.007 67.7128 605.751 83.0327 605.751 109.079V196.289H581.721V113.939C581.721 97.9925 572.825 89.1095 557.867 88.8359L557.15 88.8291C544.461 88.8292 530.421 95.8492 519.081 107.999V196.289Z" fill="black"/>
<path d="M425.063 197.91V176.85C415.073 188.19 399.953 196.56 383.483 196.56V195.56C399.616 195.56 414.478 187.354 424.313 176.189L426.063 174.202V197.91C426.063 210.626 422.782 221.276 416.444 228.763C410.088 236.272 400.748 240.49 388.884 240.49C376.927 240.49 368.477 236.98 362.493 232.422C356.959 228.207 353.584 223.135 351.479 219.244L332.91 229.146C336.633 237.812 351.196 259.01 388.884 259.01V260.01L387.964 260.006C349.846 259.658 335.317 237.702 331.804 229.093L331.644 228.69L351.894 217.89C355.88 225.597 365.1 239.062 387.793 239.48L388.884 239.49C411.741 239.49 424.656 223.531 425.054 199.081L425.063 197.91ZM321.113 133.11C321.113 98.0104 344.334 67.2306 383.483 67.2305L384.255 67.2363C400.425 67.4926 415.23 75.7777 425.063 86.9404L428.844 70.4697H449.094V201.42L449.09 202.271C448.743 238.214 426.388 260.01 388.884 260.01V259.01C407.59 259.01 422.367 253.535 432.465 243.669C442.56 233.805 448.094 219.438 448.094 201.42V71.4697H429.641L425.603 89.0645L424.313 87.6006C414.478 76.4356 399.616 68.2305 383.483 68.2305C344.997 68.2306 322.113 98.4449 322.113 133.11C322.113 150.441 327.845 166.049 338.349 177.315C348.844 188.572 364.164 195.56 383.483 195.56V196.56C344.639 196.559 321.478 168.651 321.118 133.932L321.113 133.11ZM425.063 108C416.293 98.1661 403.598 89.1173 387.493 88.8369L386.724 88.8301C361.344 88.8301 346.224 107.73 346.224 133.11L346.234 134.293C346.698 159.001 361.74 174.96 386.724 174.96C403.194 174.96 416.153 165.78 425.063 155.79V108ZM426.063 156.171L425.81 156.456C416.799 166.559 403.589 175.96 386.724 175.96C373.811 175.96 363.406 171.765 356.232 164.243C349.065 156.728 345.224 145.997 345.224 133.11C345.224 120.227 349.062 108.906 356.205 100.792C363.361 92.6634 373.768 87.8301 386.724 87.8301C403.589 87.8301 416.799 97.231 425.81 107.334L426.063 107.619V156.171Z" fill="black"/>
<path d="M282.842 70.4688V196.289H258.812V70.4688H282.842ZM259.812 195.289H281.842V71.4688H259.812V195.289ZM286.433 24.0293C286.433 15.4122 279.601 8.55865 270.692 8.55859C262.065 8.55859 255.223 15.4016 255.223 24.0293C255.223 32.6569 262.065 39.499 270.692 39.499V40.499L270.264 40.4941C261.429 40.2749 254.447 33.2927 254.228 24.458L254.223 24.0293C254.223 14.8493 261.512 7.55859 270.692 7.55859L271.134 7.56445C280.368 7.78749 287.433 14.9928 287.433 24.0293L287.427 24.458C287.204 33.4351 279.995 40.499 270.692 40.499V39.499C279.601 39.499 286.432 32.6462 286.433 24.0293Z" fill="black"/>
<path d="M188.261 70.4697V0.80957H212.291V196.29H188.261V92.0703H126.971V196.29H102.671V92.0703H76.2109V70.4697H102.671V49.4102C102.671 21.0602 113.741 0 145.871 0L146.774 0.0136719C156.023 0.282965 162.611 4.58984 162.611 4.58984V25.9199C162.611 25.9199 157.543 21.1055 149.371 20.8047L148.571 20.79C132.911 20.79 126.971 33.2102 126.971 56.7002V70.4697H188.261ZM103.671 71.4697H77.2109V91.0703H103.671V195.29H125.971V91.0703H189.261V195.29H211.291V1.80957H189.261V71.4697H125.971V56.7002C125.971 44.9112 127.454 35.716 131.029 29.4414C132.828 26.284 135.164 23.8557 138.104 22.2236C141.041 20.5938 144.523 19.79 148.571 19.79C153.092 19.7901 156.762 21.1325 159.298 22.4707C160.221 22.9581 160.997 23.4468 161.611 23.8721V5.15527C161.426 5.0477 161.186 4.91113 160.894 4.75586C160.114 4.34151 158.968 3.78495 157.525 3.22754C154.637 2.11144 150.576 1.00002 145.871 1C130.044 1 119.569 6.17339 113.015 14.6836C106.423 23.2428 103.671 35.3381 103.671 49.4102V71.4697Z" fill="black"/>
<path d="M633.094 105.069V83.4694H655.504V47.5594L679.264 31.3594V83.4694H708.424V105.069H679.264V170.409C679.264 180.669 684.934 188.499 698.974 188.499C704.104 188.499 708.424 187.419 708.424 187.419V207.669C706.804 208.479 699.784 210.639 693.034 210.639C671.704 210.639 655.504 198.489 655.504 177.699V105.069H633.094Z" fill="white"/>
<path d="M488.051 209.289V13.8086H512.081V98.0486C518.291 91.8386 532.871 80.2286 554.471 80.2286C581.471 80.2286 598.751 95.6186 598.751 122.079V209.289H574.721V126.939C574.721 110.739 565.541 101.829 550.151 101.829C537.461 101.829 523.421 108.849 512.081 120.999V209.289H488.051Z" fill="white"/>
<path d="M442.093 83.4685V214.419C442.093 250.869 419.683 273.009 381.883 273.009C342.463 273.009 327.883 250.059 324.643 241.689L344.893 230.889C348.943 238.719 358.393 252.489 381.883 252.489C405.103 252.489 418.063 236.019 418.063 210.909V189.849C408.073 201.189 392.953 209.559 376.483 209.559C337.333 209.559 314.113 181.209 314.113 146.109C314.113 111.009 337.333 80.2285 376.483 80.2285C392.953 80.2285 408.073 88.5985 418.063 99.9385L421.843 83.4685H442.093ZM339.223 146.109C339.223 171.489 354.343 187.959 379.723 187.959C396.193 187.959 409.153 178.779 418.063 168.789V120.999C409.153 111.009 396.193 101.829 379.723 101.829C354.343 101.829 339.223 120.729 339.223 146.109Z" fill="white"/>
<path d="M251.813 209.289V83.4686H275.843V209.289H251.813ZM247.223 37.0286C247.223 27.8486 254.513 20.5586 263.693 20.5586C273.143 20.5586 280.433 27.8486 280.433 37.0286C280.433 46.2086 273.143 53.4986 263.693 53.4986C254.513 53.4986 247.223 46.2086 247.223 37.0286Z" fill="white"/>
<path d="M95.6709 83.47V62.41C95.6709 34.06 106.741 13 138.871 13C148.591 13 155.611 17.59 155.611 17.59V38.92C155.611 38.92 150.211 33.79 141.571 33.79C125.911 33.79 119.971 46.21 119.971 69.7V83.47H181.261V13.81H205.291V209.29H181.261V105.07H119.971V209.29H95.6709V105.07H69.2109V83.47H95.6709Z" fill="white"/>
<path d="M678.264 170.409V104.069H707.423V84.4688H678.264V33.25L656.503 48.0879V84.4688H634.094V104.069H656.503V177.699C656.503 187.811 660.432 195.761 666.912 201.199C673.411 206.653 682.55 209.639 693.033 209.639V210.639C672.036 210.639 656.011 198.866 655.516 178.667L655.503 177.699V105.069H633.094V83.4688H655.503V47.5586L679.264 31.3594V83.4688H708.423V105.069H679.264V170.409L679.268 170.889C679.44 180.753 684.973 188.257 698.321 188.493L698.974 188.499C704.074 188.499 708.374 187.431 708.423 187.419V207.669C706.802 208.479 699.783 210.639 693.033 210.639V209.639C696.31 209.639 699.675 209.114 702.429 208.483C704.671 207.97 706.451 207.398 707.423 207.013V188.654C706.975 188.742 706.42 188.846 705.777 188.947C704.022 189.223 701.605 189.499 698.974 189.499C691.77 189.499 686.551 187.486 683.139 184.001C679.731 180.521 678.264 175.716 678.264 170.409Z" fill="black"/>
<path d="M597.751 122.079C597.751 109.075 593.511 98.897 586.055 91.9639C578.589 85.0218 567.785 81.2295 554.471 81.2295C533.245 81.2295 518.905 92.6388 512.788 98.7559L511.081 100.463V14.8086H489.051V208.289H511.081V120.604L511.35 120.316C522.82 108.027 537.107 100.829 550.15 100.829C558.037 100.829 564.463 103.115 568.917 107.604C573.37 112.093 575.721 118.653 575.721 126.939V208.289H597.751V122.079ZM512.081 209.289H488.051V13.8086H512.081V98.0488C518.291 91.8387 532.871 80.2295 554.471 80.2295L555.729 80.2402C582.007 80.7128 598.751 96.0327 598.751 122.079V209.289H574.721V126.939C574.721 110.992 565.825 102.11 550.867 101.836L550.15 101.829C537.461 101.829 523.421 108.849 512.081 120.999V209.289Z" fill="black"/>
<path d="M418.063 210.91V189.85C408.073 201.19 392.953 209.56 376.483 209.56V208.56C392.616 208.56 407.478 200.354 417.313 189.189L419.063 187.202V210.91C419.063 223.626 415.782 234.276 409.444 241.763C403.088 249.272 393.748 253.49 381.884 253.49C369.927 253.49 361.477 249.98 355.493 245.422C349.959 241.207 346.584 236.135 344.479 232.244L325.91 242.146C329.633 250.812 344.196 272.01 381.884 272.01V273.01L380.964 273.006C342.846 272.658 328.317 250.702 324.804 242.093L324.644 241.69L344.894 230.89C348.88 238.597 358.1 252.062 380.793 252.48L381.884 252.49C404.741 252.49 417.656 236.531 418.054 212.081L418.063 210.91ZM314.113 146.11C314.113 111.01 337.334 80.2306 376.483 80.2305L377.255 80.2363C393.425 80.4926 408.23 88.7777 418.063 99.9404L421.844 83.4697H442.094V214.42L442.09 215.271C441.743 251.214 419.388 273.01 381.884 273.01V272.01C400.59 272.01 415.367 266.535 425.465 256.669C435.56 246.805 441.094 232.438 441.094 214.42V84.4697H422.641L418.603 102.064L417.313 100.601C407.478 89.4356 392.616 81.2305 376.483 81.2305C337.997 81.2306 315.113 111.445 315.113 146.11C315.113 163.441 320.845 179.049 331.349 190.315C341.844 201.572 357.164 208.56 376.483 208.56V209.56C337.639 209.559 314.478 181.651 314.118 146.932L314.113 146.11ZM418.063 121C409.293 111.166 396.598 102.117 380.493 101.837L379.724 101.83C354.344 101.83 339.224 120.73 339.224 146.11L339.234 147.293C339.698 172.001 354.74 187.96 379.724 187.96C396.194 187.96 409.153 178.78 418.063 168.79V121ZM419.063 169.171L418.81 169.456C409.799 179.559 396.589 188.96 379.724 188.96C366.811 188.96 356.406 184.765 349.232 177.243C342.065 169.728 338.224 158.997 338.224 146.11C338.224 133.227 342.062 121.906 349.205 113.792C356.361 105.663 366.768 100.83 379.724 100.83C396.589 100.83 409.799 110.231 418.81 120.334L419.063 120.619V169.171Z" fill="black"/>
<path d="M275.842 83.4688V209.289H251.812V83.4688H275.842ZM252.812 208.289H274.842V84.4688H252.812V208.289ZM279.433 37.0293C279.433 28.4122 272.601 21.5587 263.692 21.5586C255.065 21.5586 248.223 28.4016 248.223 37.0293C248.223 45.6569 255.065 52.499 263.692 52.499V53.499L263.264 53.4941C254.429 53.2749 247.447 46.2927 247.228 37.458L247.223 37.0293C247.223 27.8493 254.512 20.5586 263.692 20.5586L264.134 20.5645C273.368 20.7875 280.433 27.9928 280.433 37.0293L280.427 37.458C280.204 46.4351 272.995 53.499 263.692 53.499V52.499C272.601 52.499 279.432 45.6462 279.433 37.0293Z" fill="black"/>
<path d="M181.261 83.4697V13.8096H205.291V209.29H181.261V105.07H119.971V209.29H95.6709V105.07H69.2109V83.4697H95.6709V62.4102C95.6709 34.0602 106.741 13 138.871 13L139.774 13.0137C149.023 13.283 155.611 17.5898 155.611 17.5898V38.9199C155.611 38.9199 150.543 34.1055 142.371 33.8047L141.571 33.79C125.911 33.79 119.971 46.2102 119.971 69.7002V83.4697H181.261ZM96.6709 84.4697H70.2109V104.07H96.6709V208.29H118.971V104.07H182.261V208.29H204.291V14.8096H182.261V84.4697H118.971V69.7002C118.971 57.9112 120.454 48.716 124.029 42.4414C125.828 39.284 128.164 36.8557 131.104 35.2236C134.041 33.5938 137.523 32.79 141.571 32.79C146.092 32.7901 149.762 34.1325 152.298 35.4707C153.221 35.9581 153.997 36.4468 154.611 36.8721V18.1553C154.426 18.0477 154.186 17.9111 153.894 17.7559C153.114 17.3415 151.968 16.7849 150.525 16.2275C147.637 15.1114 143.576 14 138.871 14C123.044 14 112.569 19.1734 106.015 27.6836C99.4231 36.2428 96.6709 48.3381 96.6709 62.4102V84.4697Z" fill="black"/>
<path d="M626.094 118.069V96.4694H648.504V60.5594L672.264 44.3594V96.4694H701.424V118.069H672.264V183.409C672.264 193.669 677.934 201.499 691.974 201.499C697.104 201.499 701.424 200.419 701.424 200.419V220.669C699.804 221.479 692.784 223.639 686.034 223.639C664.704 223.639 648.504 211.489 648.504 190.699V118.069H626.094Z" fill="white"/>
<path d="M481.051 222.289V26.8086H505.081V111.049C511.291 104.839 525.871 93.2286 547.471 93.2286C574.471 93.2286 591.751 108.619 591.751 135.079V222.289H567.721V139.939C567.721 123.739 558.541 114.829 543.151 114.829C530.461 114.829 516.421 121.849 505.081 133.999V222.289H481.051Z" fill="white"/>
<path d="M435.093 96.4685V227.419C435.093 263.869 412.683 286.009 374.883 286.009C335.463 286.009 320.883 263.059 317.643 254.689L337.893 243.889C341.943 251.719 351.393 265.489 374.883 265.489C398.103 265.489 411.063 249.019 411.063 223.909V202.849C401.073 214.189 385.953 222.559 369.483 222.559C330.333 222.559 307.113 194.209 307.113 159.109C307.113 124.009 330.333 93.2285 369.483 93.2285C385.953 93.2285 401.073 101.599 411.063 112.939L414.843 96.4685H435.093ZM332.223 159.109C332.223 184.489 347.343 200.959 372.723 200.959C389.193 200.959 402.153 191.779 411.063 181.789V133.999C402.153 124.009 389.193 114.829 372.723 114.829C347.343 114.829 332.223 133.729 332.223 159.109Z" fill="white"/>
<path d="M244.813 222.289V96.4686H268.843V222.289H244.813ZM240.223 50.0286C240.223 40.8486 247.513 33.5586 256.693 33.5586C266.143 33.5586 273.433 40.8486 273.433 50.0286C273.433 59.2086 266.143 66.4986 256.693 66.4986C247.513 66.4986 240.223 59.2086 240.223 50.0286Z" fill="white"/>
<path d="M88.6709 96.47V75.41C88.6709 47.06 99.7409 26 131.871 26C141.591 26 148.611 30.59 148.611 30.59V51.92C148.611 51.92 143.211 46.79 134.571 46.79C118.911 46.79 112.971 59.21 112.971 82.7V96.47H174.261V26.81H198.291V222.29H174.261V118.07H112.971V222.29H88.6709V118.07H62.2109V96.47H88.6709Z" fill="white"/>
<path d="M671.264 183.409V117.069H700.423V97.4688H671.264V46.25L649.503 61.0879V97.4688H627.094V117.069H649.503V190.699C649.503 200.811 653.432 208.761 659.912 214.199C666.411 219.653 675.55 222.639 686.033 222.639V223.639C665.036 223.639 649.011 211.866 648.516 191.667L648.503 190.699V118.069H626.094V96.4688H648.503V60.5586L672.264 44.3594V96.4688H701.423V118.069H672.264V183.409L672.268 183.889C672.44 193.753 677.973 201.257 691.321 201.493L691.974 201.499C697.074 201.499 701.374 200.431 701.423 200.419V220.669C699.802 221.479 692.783 223.639 686.033 223.639V222.639C689.31 222.639 692.675 222.114 695.429 221.483C697.671 220.97 699.451 220.398 700.423 220.013V201.654C699.975 201.742 699.42 201.846 698.777 201.947C697.022 202.223 694.605 202.499 691.974 202.499C684.77 202.499 679.551 200.486 676.139 197.001C672.731 193.521 671.264 188.716 671.264 183.409Z" fill="black"/>
<path d="M590.751 135.079C590.751 122.075 586.511 111.897 579.055 104.964C571.589 98.0218 560.785 94.2295 547.471 94.2295C526.245 94.2295 511.905 105.639 505.788 111.756L504.081 113.463V27.8086H482.051V221.289H504.081V133.604L504.35 133.316C515.82 121.027 530.107 113.829 543.15 113.829C551.037 113.829 557.463 116.115 561.917 120.604C566.37 125.093 568.721 131.653 568.721 139.939V221.289H590.751V135.079ZM505.081 222.289H481.051V26.8086H505.081V111.049C511.291 104.839 525.871 93.2295 547.471 93.2295L548.729 93.2402C575.007 93.7128 591.751 109.033 591.751 135.079V222.289H567.721V139.939C567.721 123.992 558.825 115.11 543.867 114.836L543.15 114.829C530.461 114.829 516.421 121.849 505.081 133.999V222.289Z" fill="black"/>
<path d="M411.063 223.91V202.85C401.073 214.19 385.953 222.56 369.483 222.56V221.56C385.616 221.56 400.478 213.354 410.313 202.189L412.063 200.202V223.91C412.063 236.626 408.782 247.276 402.444 254.763C396.088 262.272 386.748 266.49 374.884 266.49C362.927 266.49 354.477 262.98 348.493 258.422C342.959 254.207 339.584 249.135 337.479 245.244L318.91 255.146C322.633 263.812 337.196 285.01 374.884 285.01V286.01L373.964 286.006C335.846 285.658 321.317 263.702 317.804 255.093L317.644 254.69L337.894 243.89C341.88 251.597 351.1 265.062 373.793 265.48L374.884 265.49C397.741 265.49 410.656 249.531 411.054 225.081L411.063 223.91ZM307.113 159.11C307.113 124.01 330.334 93.2306 369.483 93.2305L370.255 93.2363C386.425 93.4926 401.23 101.778 411.063 112.94L414.844 96.4697H435.094V227.42L435.09 228.271C434.743 264.214 412.388 286.01 374.884 286.01V285.01C393.59 285.01 408.367 279.535 418.465 269.669C428.56 259.805 434.094 245.438 434.094 227.42V97.4697H415.641L411.603 115.064L410.313 113.601C400.478 102.436 385.616 94.2305 369.483 94.2305C330.997 94.2306 308.113 124.445 308.113 159.11C308.113 176.441 313.845 192.049 324.349 203.315C334.844 214.572 350.164 221.56 369.483 221.56V222.56C330.639 222.559 307.478 194.651 307.118 159.932L307.113 159.11ZM411.063 134C402.293 124.166 389.598 115.117 373.493 114.837L372.724 114.83C347.344 114.83 332.224 133.73 332.224 159.11L332.234 160.293C332.698 185.001 347.74 200.96 372.724 200.96C389.194 200.96 402.153 191.78 411.063 181.79V134ZM412.063 182.171L411.81 182.456C402.799 192.559 389.589 201.96 372.724 201.96C359.811 201.96 349.406 197.765 342.232 190.243C335.065 182.728 331.224 171.997 331.224 159.11C331.224 146.227 335.062 134.906 342.205 126.792C349.361 118.663 359.768 113.83 372.724 113.83C389.589 113.83 402.799 123.231 411.81 133.334L412.063 133.619V182.171Z" fill="black"/>
<path d="M268.842 96.4688V222.289H244.812V96.4688H268.842ZM245.812 221.289H267.842V97.4688H245.812V221.289ZM272.433 50.0293C272.433 41.4122 265.601 34.5587 256.692 34.5586C248.065 34.5586 241.223 41.4016 241.223 50.0293C241.223 58.6569 248.065 65.499 256.692 65.499V66.499L256.264 66.4941C247.429 66.2749 240.447 59.2927 240.228 50.458L240.223 50.0293C240.223 40.8493 247.512 33.5586 256.692 33.5586L257.134 33.5645C266.368 33.7875 273.433 40.9928 273.433 50.0293L273.427 50.458C273.204 59.4351 265.995 66.499 256.692 66.499V65.499C265.601 65.499 272.432 58.6462 272.433 50.0293Z" fill="black"/>
<path d="M174.261 96.4697V26.8096H198.291V222.29H174.261V118.07H112.971V222.29H88.6709V118.07H62.2109V96.4697H88.6709V75.4102C88.6709 47.0602 99.7411 26 131.871 26L132.774 26.0137C142.023 26.283 148.611 30.5898 148.611 30.5898V51.9199C148.611 51.9199 143.543 47.1055 135.371 46.8047L134.571 46.79C118.911 46.79 112.971 59.2102 112.971 82.7002V96.4697H174.261ZM89.6709 97.4697H63.2109V117.07H89.6709V221.29H111.971V117.07H175.261V221.29H197.291V27.8096H175.261V97.4697H111.971V82.7002C111.971 70.9112 113.454 61.716 117.029 55.4414C118.828 52.284 121.164 49.8557 124.104 48.2236C127.041 46.5938 130.523 45.79 134.571 45.79C139.092 45.7901 142.762 47.1325 145.298 48.4707C146.221 48.9581 146.997 49.4468 147.611 49.8721V31.1553C147.426 31.0477 147.186 30.9111 146.894 30.7559C146.114 30.3415 144.968 29.7849 143.525 29.2275C140.637 28.1114 136.576 27 131.871 27C116.044 27 105.569 32.1734 99.0146 40.6836C92.4231 49.2428 89.6709 61.3381 89.6709 75.4102V97.4697Z" fill="black"/>
<path d="M619.094 131.069V109.469H641.504V73.5594L665.264 57.3594V109.469H694.424V131.069H665.264V196.409C665.264 206.669 670.934 214.499 684.974 214.499C690.104 214.499 694.424 213.419 694.424 213.419V233.669C692.804 234.479 685.784 236.639 679.034 236.639C657.704 236.639 641.504 224.489 641.504 203.699V131.069H619.094Z" fill="white"/>
<path d="M474.051 235.289V39.8086H498.081V124.049C504.291 117.839 518.871 106.229 540.471 106.229C567.471 106.229 584.751 121.619 584.751 148.079V235.289H560.721V152.939C560.721 136.739 551.541 127.829 536.151 127.829C523.461 127.829 509.421 134.849 498.081 146.999V235.289H474.051Z" fill="white"/>
<path d="M428.093 109.469V240.419C428.093 276.869 405.683 299.009 367.883 299.009C328.463 299.009 313.883 276.059 310.643 267.689L330.893 256.889C334.943 264.719 344.393 278.489 367.883 278.489C391.103 278.489 404.063 262.019 404.063 236.909V215.849C394.073 227.189 378.953 235.559 362.483 235.559C323.333 235.559 300.113 207.209 300.113 172.109C300.113 137.009 323.333 106.229 362.483 106.229C378.953 106.229 394.073 114.599 404.063 125.939L407.843 109.469H428.093ZM325.223 172.109C325.223 197.489 340.343 213.959 365.723 213.959C382.193 213.959 395.153 204.779 404.063 194.789V146.999C395.153 137.009 382.193 127.829 365.723 127.829C340.343 127.829 325.223 146.729 325.223 172.109Z" fill="white"/>
<path d="M237.813 235.289V109.469H261.843V235.289H237.813ZM233.223 63.0286C233.223 53.8486 240.513 46.5586 249.693 46.5586C259.143 46.5586 266.433 53.8486 266.433 63.0286C266.433 72.2086 259.143 79.4986 249.693 79.4986C240.513 79.4986 233.223 72.2086 233.223 63.0286Z" fill="white"/>
<path d="M81.6709 109.47V88.41C81.6709 60.06 92.7409 39 124.871 39C134.591 39 141.611 43.59 141.611 43.59V64.92C141.611 64.92 136.211 59.79 127.571 59.79C111.911 59.79 105.971 72.21 105.971 95.7V109.47H167.261V39.81H191.291V235.29H167.261V131.07H105.971V235.29H81.6709V131.07H55.2109V109.47H81.6709Z" fill="white"/>
<path d="M664.264 196.409V130.069H693.423V110.469H664.264V59.25L642.503 74.0879V110.469H620.094V130.069H642.503V203.699C642.503 213.811 646.432 221.761 652.912 227.199C659.411 232.653 668.55 235.639 679.033 235.639V236.639C658.036 236.639 642.011 224.866 641.516 204.667L641.503 203.699V131.069H619.094V109.469H641.503V73.5586L665.264 57.3594V109.469H694.423V131.069H665.264V196.409L665.268 196.889C665.44 206.753 670.973 214.257 684.321 214.493L684.974 214.499C690.074 214.499 694.374 213.431 694.423 213.419V233.669C692.802 234.479 685.783 236.639 679.033 236.639V235.639C682.31 235.639 685.675 235.114 688.429 234.483C690.671 233.97 692.451 233.398 693.423 233.013V214.654C692.975 214.742 692.42 214.846 691.777 214.947C690.022 215.223 687.605 215.499 684.974 215.499C677.77 215.499 672.551 213.486 669.139 210.001C665.731 206.521 664.264 201.716 664.264 196.409Z" fill="black"/>
<path d="M583.751 148.079C583.751 135.075 579.511 124.897 572.055 117.964C564.589 111.022 553.785 107.23 540.471 107.229C519.245 107.229 504.905 118.639 498.788 124.756L497.081 126.463V40.8086H475.051V234.289H497.081V146.604L497.35 146.316C508.82 134.027 523.107 126.829 536.15 126.829C544.037 126.829 550.463 129.115 554.917 133.604C559.37 138.093 561.721 144.653 561.721 152.939V234.289H583.751V148.079ZM498.081 235.289H474.051V39.8086H498.081V124.049C504.291 117.839 518.871 106.229 540.471 106.229L541.729 106.24C568.007 106.713 584.751 122.033 584.751 148.079V235.289H560.721V152.939C560.721 136.992 551.825 128.11 536.867 127.836L536.15 127.829C523.461 127.829 509.421 134.849 498.081 146.999V235.289Z" fill="black"/>
<path d="M404.063 236.91V215.85C394.073 227.19 378.953 235.56 362.483 235.56V234.56C378.616 234.56 393.478 226.354 403.313 215.189L405.063 213.202V236.91C405.063 249.626 401.782 260.276 395.444 267.763C389.088 275.272 379.748 279.49 367.884 279.49C355.927 279.49 347.477 275.98 341.493 271.422C335.959 267.207 332.584 262.135 330.479 258.244L311.91 268.146C315.633 276.812 330.196 298.01 367.884 298.01V299.01L366.964 299.006C328.846 298.658 314.317 276.702 310.804 268.093L310.644 267.69L330.894 256.89C334.88 264.597 344.1 278.062 366.793 278.48L367.884 278.49C390.741 278.49 403.656 262.531 404.054 238.081L404.063 236.91ZM300.113 172.11C300.113 137.01 323.334 106.231 362.483 106.23L363.255 106.236C379.425 106.493 394.23 114.778 404.063 125.94L407.844 109.47H428.094V240.42L428.09 241.271C427.743 277.214 405.388 299.01 367.884 299.01V298.01C386.59 298.01 401.367 292.535 411.465 282.669C421.56 272.805 427.094 258.438 427.094 240.42V110.47H408.641L404.603 128.064L403.313 126.601C393.478 115.436 378.616 107.23 362.483 107.23C323.997 107.231 301.113 137.445 301.113 172.11C301.113 189.441 306.845 205.049 317.349 216.315C327.844 227.572 343.164 234.56 362.483 234.56V235.56C323.639 235.559 300.478 207.651 300.118 172.932L300.113 172.11ZM404.063 147C395.293 137.166 382.598 128.117 366.493 127.837L365.724 127.83C340.344 127.83 325.224 146.73 325.224 172.11L325.234 173.293C325.698 198.001 340.74 213.96 365.724 213.96C382.194 213.96 395.153 204.78 404.063 194.79V147ZM405.063 195.171L404.81 195.456C395.799 205.559 382.589 214.96 365.724 214.96C352.811 214.96 342.406 210.765 335.232 203.243C328.065 195.728 324.224 184.997 324.224 172.11C324.224 159.227 328.062 147.906 335.205 139.792C342.361 131.663 352.768 126.83 365.724 126.83C382.589 126.83 395.799 136.231 404.81 146.334L405.063 146.619V195.171Z" fill="black"/>
<path d="M261.842 109.469V235.289H237.812V109.469H261.842ZM238.812 234.289H260.842V110.469H238.812V234.289ZM265.433 63.0293C265.433 54.4122 258.601 47.5587 249.692 47.5586C241.065 47.5586 234.223 54.4016 234.223 63.0293C234.223 71.6569 241.065 78.499 249.692 78.499V79.499L249.264 79.4941C240.429 79.2749 233.447 72.2927 233.228 63.458L233.223 63.0293C233.223 53.8493 240.512 46.5586 249.692 46.5586L250.134 46.5645C259.368 46.7875 266.433 53.9928 266.433 63.0293L266.427 63.458C266.204 72.4351 258.995 79.499 249.692 79.499V78.499C258.601 78.499 265.432 71.6462 265.433 63.0293Z" fill="black"/>
<path d="M167.261 109.47V39.8096H191.291V235.29H167.261V131.07H105.971V235.29H81.6709V131.07H55.2109V109.47H81.6709V88.4102C81.6709 60.0602 92.7411 39 124.871 39L125.774 39.0137C135.023 39.283 141.611 43.5898 141.611 43.5898V64.9199C141.611 64.9199 136.543 60.1055 128.371 59.8047L127.571 59.79C111.911 59.79 105.971 72.2102 105.971 95.7002V109.47H167.261ZM82.6709 110.47H56.2109V130.07H82.6709V234.29H104.971V130.07H168.261V234.29H190.291V40.8096H168.261V110.47H104.971V95.7002C104.971 83.9112 106.454 74.716 110.029 68.4414C111.828 65.284 114.164 62.8557 117.104 61.2236C120.041 59.5938 123.523 58.79 127.571 58.79C132.092 58.7901 135.762 60.1325 138.298 61.4707C139.221 61.9581 139.997 62.4468 140.611 62.8721V44.1553C140.426 44.0477 140.186 43.9111 139.894 43.7559C139.114 43.3415 137.968 42.7849 136.525 42.2275C133.637 41.1114 129.576 40 124.871 40C109.044 40 98.5686 45.1734 92.0146 53.6836C85.4231 62.2428 82.6709 74.3381 82.6709 88.4102V110.47Z" fill="black"/>
<path d="M612.094 144.069V122.469H634.504V86.5594L658.264 70.3594V122.469H687.424V144.069H658.264V209.409C658.264 219.669 663.934 227.499 677.974 227.499C683.104 227.499 687.424 226.419 687.424 226.419V246.669C685.804 247.479 678.784 249.639 672.034 249.639C650.704 249.639 634.504 237.489 634.504 216.699V144.069H612.094Z" fill="white"/>
<path d="M467.051 248.289V52.8086H491.081V137.049C497.291 130.839 511.871 119.229 533.471 119.229C560.471 119.229 577.751 134.619 577.751 161.079V248.289H553.721V165.939C553.721 149.739 544.541 140.829 529.151 140.829C516.461 140.829 502.421 147.849 491.081 159.999V248.289H467.051Z" fill="white"/>
<path d="M421.093 122.469V253.419C421.093 289.869 398.683 312.009 360.883 312.009C321.463 312.009 306.883 289.059 303.643 280.689L323.893 269.889C327.943 277.719 337.393 291.489 360.883 291.489C384.103 291.489 397.063 275.019 397.063 249.909V228.849C387.073 240.189 371.953 248.559 355.483 248.559C316.333 248.559 293.113 220.209 293.113 185.109C293.113 150.009 316.333 119.229 355.483 119.229C371.953 119.229 387.073 127.599 397.063 138.939L400.843 122.469H421.093ZM318.223 185.109C318.223 210.489 333.343 226.959 358.723 226.959C375.193 226.959 388.153 217.779 397.063 207.789V159.999C388.153 150.009 375.193 140.829 358.723 140.829C333.343 140.829 318.223 159.729 318.223 185.109Z" fill="white"/>
<path d="M230.813 248.289V122.469H254.843V248.289H230.813ZM226.223 76.0286C226.223 66.8486 233.513 59.5586 242.693 59.5586C252.143 59.5586 259.433 66.8486 259.433 76.0286C259.433 85.2086 252.143 92.4986 242.693 92.4986C233.513 92.4986 226.223 85.2086 226.223 76.0286Z" fill="white"/>
<path d="M74.6709 122.47V101.41C74.6709 73.06 85.7409 52 117.871 52C127.591 52 134.611 56.59 134.611 56.59V77.92C134.611 77.92 129.211 72.79 120.571 72.79C104.911 72.79 98.9709 85.21 98.9709 108.7V122.47H160.261V52.81H184.291V248.29H160.261V144.07H98.9709V248.29H74.6709V144.07H48.2109V122.47H74.6709Z" fill="white"/>
<path d="M657.264 209.409V143.069H686.423V123.469H657.264V72.25L635.503 87.0879V123.469H613.094V143.069H635.503V216.699C635.503 226.811 639.432 234.761 645.912 240.199C652.411 245.653 661.55 248.639 672.033 248.639V249.639C651.036 249.639 635.011 237.866 634.516 217.667L634.503 216.699V144.069H612.094V122.469H634.503V86.5586L658.264 70.3594V122.469H687.423V144.069H658.264V209.409L658.268 209.889C658.44 219.753 663.973 227.257 677.321 227.493L677.974 227.499C683.074 227.499 687.374 226.431 687.423 226.419V246.669C685.802 247.479 678.783 249.639 672.033 249.639V248.639C675.31 248.639 678.675 248.114 681.429 247.483C683.671 246.97 685.451 246.398 686.423 246.013V227.654C685.975 227.742 685.42 227.846 684.777 227.947C683.022 228.223 680.605 228.499 677.974 228.499C670.77 228.499 665.551 226.486 662.139 223.001C658.731 219.521 657.264 214.716 657.264 209.409Z" fill="black"/>
<path d="M576.751 161.079C576.751 148.075 572.511 137.897 565.055 130.964C557.589 124.022 546.785 120.23 533.471 120.229C512.245 120.229 497.905 131.639 491.788 137.756L490.081 139.463V53.8086H468.051V247.289H490.081V159.604L490.35 159.316C501.82 147.027 516.107 139.829 529.15 139.829C537.037 139.829 543.463 142.115 547.917 146.604C552.37 151.093 554.721 157.653 554.721 165.939V247.289H576.751V161.079ZM491.081 248.289H467.051V52.8086H491.081V137.049C497.291 130.839 511.871 119.229 533.471 119.229L534.729 119.24C561.007 119.713 577.751 135.033 577.751 161.079V248.289H553.721V165.939C553.721 149.992 544.825 141.11 529.867 140.836L529.15 140.829C516.461 140.829 502.421 147.849 491.081 159.999V248.289Z" fill="black"/>
<path d="M397.063 249.91V228.85C387.073 240.19 371.953 248.56 355.483 248.56V247.56C371.616 247.56 386.478 239.354 396.313 228.189L398.063 226.202V249.91C398.063 262.626 394.782 273.276 388.444 280.763C382.088 288.272 372.748 292.49 360.884 292.49C348.927 292.49 340.477 288.98 334.493 284.422C328.959 280.207 325.584 275.135 323.479 271.244L304.91 281.146C308.633 289.812 323.196 311.01 360.884 311.01V312.01L359.964 312.006C321.846 311.658 307.317 289.702 303.804 281.093L303.644 280.69L323.894 269.89C327.88 277.597 337.1 291.062 359.793 291.48L360.884 291.49C383.741 291.49 396.656 275.531 397.054 251.081L397.063 249.91ZM293.113 185.11C293.113 150.01 316.334 119.231 355.483 119.23L356.255 119.236C372.425 119.493 387.23 127.778 397.063 138.94L400.844 122.47H421.094V253.42L421.09 254.271C420.743 290.214 398.388 312.01 360.884 312.01V311.01C379.59 311.01 394.367 305.535 404.465 295.669C414.56 285.805 420.094 271.438 420.094 253.42V123.47H401.641L397.603 141.064L396.313 139.601C386.478 128.436 371.616 120.23 355.483 120.23C316.997 120.231 294.113 150.445 294.113 185.11C294.113 202.441 299.845 218.049 310.349 229.315C320.844 240.572 336.164 247.56 355.483 247.56V248.56C316.639 248.559 293.478 220.651 293.118 185.932L293.113 185.11ZM397.063 160C388.293 150.166 375.598 141.117 359.493 140.837L358.724 140.83C333.344 140.83 318.224 159.73 318.224 185.11L318.234 186.293C318.698 211.001 333.74 226.96 358.724 226.96C375.194 226.96 388.153 217.78 397.063 207.79V160ZM398.063 208.171L397.81 208.456C388.799 218.559 375.589 227.96 358.724 227.96C345.811 227.96 335.406 223.765 328.232 216.243C321.065 208.728 317.224 197.997 317.224 185.11C317.224 172.227 321.062 160.906 328.205 152.792C335.361 144.663 345.768 139.83 358.724 139.83C375.589 139.83 388.799 149.231 397.81 159.334L398.063 159.619V208.171Z" fill="black"/>
<path d="M254.842 122.469V248.289H230.812V122.469H254.842ZM231.812 247.289H253.842V123.469H231.812V247.289ZM258.433 76.0293C258.433 67.4122 251.601 60.5587 242.692 60.5586C234.065 60.5586 227.223 67.4016 227.223 76.0293C227.223 84.6569 234.065 91.499 242.692 91.499V92.499L242.264 92.4941C233.429 92.2749 226.447 85.2927 226.228 76.458L226.223 76.0293C226.223 66.8493 233.512 59.5586 242.692 59.5586L243.134 59.5645C252.368 59.7875 259.433 66.9928 259.433 76.0293L259.427 76.458C259.204 85.4351 251.995 92.499 242.692 92.499V91.499C251.601 91.499 258.432 84.6462 258.433 76.0293Z" fill="black"/>
<path d="M160.261 122.47V52.8096H184.291V248.29H160.261V144.07H98.9707V248.29H74.6709V144.07H48.2109V122.47H74.6709V101.41C74.6709 73.0602 85.7411 52 117.871 52L118.774 52.0137C128.023 52.283 134.611 56.5898 134.611 56.5898V77.9199C134.611 77.9199 129.543 73.1055 121.371 72.8047L120.571 72.79C104.911 72.79 98.9707 85.2102 98.9707 108.7V122.47H160.261ZM75.6709 123.47H49.2109V143.07H75.6709V247.29H97.9707V143.07H161.261V247.29H183.291V53.8096H161.261V123.47H97.9707V108.7C97.9707 96.9112 99.454 87.716 103.029 81.4414C104.828 78.284 107.164 75.8557 110.104 74.2236C113.041 72.5938 116.523 71.79 120.571 71.79C125.092 71.7901 128.762 73.1325 131.298 74.4707C132.221 74.9581 132.997 75.4468 133.611 75.8721V57.1553C133.426 57.0477 133.186 56.9111 132.894 56.7559C132.114 56.3415 130.968 55.7849 129.525 55.2275C126.637 54.1114 122.576 53 117.871 53C102.044 53 91.5686 58.1734 85.0146 66.6836C78.4231 75.2428 75.6709 87.3381 75.6709 101.41V123.47Z" fill="black"/>
<path d="M605.094 157.069V135.469H627.504V99.5594L651.264 83.3594V135.469H680.424V157.069H651.264V222.409C651.264 232.669 656.934 240.499 670.974 240.499C676.104 240.499 680.424 239.419 680.424 239.419V259.669C678.804 260.479 671.784 262.639 665.034 262.639C643.704 262.639 627.504 250.489 627.504 229.699V157.069H605.094Z" fill="white"/>
<path d="M460.051 261.289V65.8086H484.081V150.049C490.291 143.839 504.871 132.229 526.471 132.229C553.471 132.229 570.751 147.619 570.751 174.079V261.289H546.721V178.939C546.721 162.739 537.541 153.829 522.151 153.829C509.461 153.829 495.421 160.849 484.081 172.999V261.289H460.051Z" fill="white"/>
<path d="M414.093 135.469V266.419C414.093 302.869 391.683 325.009 353.883 325.009C314.463 325.009 299.883 302.059 296.643 293.689L316.893 282.889C320.943 290.719 330.393 304.489 353.883 304.489C377.103 304.489 390.063 288.019 390.063 262.909V241.849C380.073 253.189 364.953 261.559 348.483 261.559C309.333 261.559 286.113 233.209 286.113 198.109C286.113 163.009 309.333 132.229 348.483 132.229C364.953 132.229 380.073 140.599 390.063 151.939L393.843 135.469H414.093ZM311.223 198.109C311.223 223.489 326.343 239.959 351.723 239.959C368.193 239.959 381.153 230.779 390.063 220.789V172.999C381.153 163.009 368.193 153.829 351.723 153.829C326.343 153.829 311.223 172.729 311.223 198.109Z" fill="white"/>
<path d="M223.813 261.289V135.469H247.843V261.289H223.813ZM219.223 89.0286C219.223 79.8486 226.513 72.5586 235.693 72.5586C245.143 72.5586 252.433 79.8486 252.433 89.0286C252.433 98.2086 245.143 105.499 235.693 105.499C226.513 105.499 219.223 98.2086 219.223 89.0286Z" fill="white"/>
<path d="M67.6709 135.47V114.41C67.6709 86.06 78.7409 65 110.871 65C120.591 65 127.611 69.59 127.611 69.59V90.92C127.611 90.92 122.211 85.79 113.571 85.79C97.9109 85.79 91.9709 98.21 91.9709 121.7V135.47H153.261V65.81H177.291V261.29H153.261V157.07H91.9709V261.29H67.6709V157.07H41.2109V135.47H67.6709Z" fill="white"/>
<path d="M650.264 222.409V156.069H679.423V136.469H650.264V85.25L628.503 100.088V136.469H606.094V156.069H628.503V229.699C628.503 239.811 632.432 247.761 638.912 253.199C645.411 258.653 654.55 261.639 665.033 261.639V262.639C644.036 262.639 628.011 250.866 627.516 230.667L627.503 229.699V157.069H605.094V135.469H627.503V99.5586L651.264 83.3594V135.469H680.423V157.069H651.264V222.409L651.268 222.889C651.44 232.753 656.973 240.257 670.321 240.493L670.974 240.499C676.074 240.499 680.374 239.431 680.423 239.419V259.669C678.802 260.479 671.783 262.639 665.033 262.639V261.639C668.31 261.639 671.675 261.114 674.429 260.483C676.671 259.97 678.451 259.398 679.423 259.013V240.654C678.975 240.742 678.42 240.846 677.777 240.947C676.022 241.223 673.605 241.499 670.974 241.499C663.77 241.499 658.551 239.486 655.139 236.001C651.731 232.521 650.264 227.716 650.264 222.409Z" fill="black"/>
<path d="M569.751 174.079C569.751 161.075 565.511 150.897 558.055 143.964C550.589 137.022 539.785 133.23 526.471 133.229C505.245 133.229 490.905 144.639 484.788 150.756L483.081 152.463V66.8086H461.051V260.289H483.081V172.604L483.35 172.316C494.82 160.027 509.107 152.829 522.15 152.829C530.037 152.829 536.463 155.115 540.917 159.604C545.37 164.093 547.721 170.653 547.721 178.939V260.289H569.751V174.079ZM484.081 261.289H460.051V65.8086H484.081V150.049C490.291 143.839 504.871 132.229 526.471 132.229L527.729 132.24C554.007 132.713 570.751 148.033 570.751 174.079V261.289H546.721V178.939C546.721 162.992 537.825 154.11 522.867 153.836L522.15 153.829C509.461 153.829 495.421 160.849 484.081 172.999V261.289Z" fill="black"/>
<path d="M390.063 262.91V241.85C380.073 253.19 364.953 261.56 348.483 261.56V260.56C364.616 260.56 379.478 252.354 389.313 241.189L391.063 239.202V262.91C391.063 275.626 387.782 286.276 381.444 293.763C375.088 301.272 365.748 305.49 353.884 305.49C341.927 305.49 333.477 301.98 327.493 297.422C321.959 293.207 318.584 288.135 316.479 284.244L297.91 294.146C301.633 302.812 316.196 324.01 353.884 324.01V325.01L352.964 325.006C314.846 324.658 300.317 302.702 296.804 294.093L296.644 293.69L316.894 282.89C320.88 290.597 330.1 304.062 352.793 304.48L353.884 304.49C376.741 304.49 389.656 288.531 390.054 264.081L390.063 262.91ZM286.113 198.11C286.113 163.01 309.334 132.231 348.483 132.23L349.255 132.236C365.425 132.493 380.23 140.778 390.063 151.94L393.844 135.47H414.094V266.42L414.09 267.271C413.743 303.214 391.388 325.01 353.884 325.01V324.01C372.59 324.01 387.367 318.535 397.465 308.669C407.56 298.805 413.094 284.438 413.094 266.42V136.47H394.641L390.603 154.064L389.313 152.601C379.478 141.436 364.616 133.23 348.483 133.23C309.997 133.231 287.113 163.445 287.113 198.11C287.113 215.441 292.845 231.049 303.349 242.315C313.844 253.572 329.164 260.56 348.483 260.56V261.56C309.639 261.559 286.478 233.651 286.118 198.932L286.113 198.11ZM390.063 173C381.293 163.166 368.598 154.117 352.493 153.837L351.724 153.83C326.344 153.83 311.224 172.73 311.224 198.11L311.234 199.293C311.698 224.001 326.74 239.96 351.724 239.96C368.194 239.96 381.153 230.78 390.063 220.79V173ZM391.063 221.171L390.81 221.456C381.799 231.559 368.589 240.96 351.724 240.96C338.811 240.96 328.406 236.765 321.232 229.243C314.065 221.728 310.224 210.997 310.224 198.11C310.224 185.227 314.062 173.906 321.205 165.792C328.361 157.663 338.768 152.83 351.724 152.83C368.589 152.83 381.799 162.231 390.81 172.334L391.063 172.619V221.171Z" fill="black"/>
<path d="M247.842 135.469V261.289H223.812V135.469H247.842ZM224.812 260.289H246.842V136.469H224.812V260.289ZM251.433 89.0293C251.433 80.4122 244.601 73.5587 235.692 73.5586C227.065 73.5586 220.223 80.4016 220.223 89.0293C220.223 97.6569 227.065 104.499 235.692 104.499V105.499L235.264 105.494C226.429 105.275 219.447 98.2927 219.228 89.458L219.223 89.0293C219.223 79.8493 226.512 72.5586 235.692 72.5586L236.134 72.5645C245.368 72.7875 252.433 79.9928 252.433 89.0293L252.427 89.458C252.204 98.4351 244.995 105.499 235.692 105.499V104.499C244.601 104.499 251.432 97.6462 251.433 89.0293Z" fill="black"/>
<path d="M153.261 135.47V65.8096H177.291V261.29H153.261V157.07H91.9707V261.29H67.6709V157.07H41.2109V135.47H67.6709V114.41C67.6709 86.0602 78.7411 65 110.871 65L111.774 65.0137C121.023 65.283 127.611 69.5898 127.611 69.5898V90.9199C127.611 90.9199 122.543 86.1055 114.371 85.8047L113.571 85.79C97.9113 85.79 91.9707 98.2102 91.9707 121.7V135.47H153.261ZM68.6709 136.47H42.2109V156.07H68.6709V260.29H90.9707V156.07H154.261V260.29H176.291V66.8096H154.261V136.47H90.9707V121.7C90.9707 109.911 92.454 100.716 96.0293 94.4414C97.8285 91.284 100.164 88.8557 103.104 87.2236C106.041 85.5938 109.523 84.79 113.571 84.79C118.092 84.7901 121.762 86.1325 124.298 87.4707C125.221 87.9581 125.997 88.4468 126.611 88.8721V70.1553C126.426 70.0477 126.186 69.9111 125.894 69.7559C125.114 69.3415 123.968 68.7849 122.525 68.2275C119.637 67.1114 115.576 66 110.871 66C95.0436 66 84.5686 71.1734 78.0146 79.6836C71.4231 88.2428 68.6709 100.338 68.6709 114.41V136.47Z" fill="black"/>
<path d="M598.094 170.069V148.469H620.504V112.559L644.264 96.3594V148.469H673.424V170.069H644.264V235.409C644.264 245.669 649.934 253.499 663.974 253.499C669.104 253.499 673.424 252.419 673.424 252.419V272.669C671.804 273.479 664.784 275.639 658.034 275.639C636.704 275.639 620.504 263.489 620.504 242.699V170.069H598.094Z" fill="white"/>
<path d="M453.051 274.289V78.8086H477.081V163.049C483.291 156.839 497.871 145.229 519.471 145.229C546.471 145.229 563.751 160.619 563.751 187.079V274.289H539.721V191.939C539.721 175.739 530.541 166.829 515.151 166.829C502.461 166.829 488.421 173.849 477.081 185.999V274.289H453.051Z" fill="white"/>
<path d="M407.093 148.469V279.419C407.093 315.869 384.683 338.009 346.883 338.009C307.463 338.009 292.883 315.059 289.643 306.689L309.893 295.889C313.943 303.719 323.393 317.489 346.883 317.489C370.103 317.489 383.063 301.019 383.063 275.909V254.849C373.073 266.189 357.953 274.559 341.483 274.559C302.333 274.559 279.113 246.209 279.113 211.109C279.113 176.009 302.333 145.229 341.483 145.229C357.953 145.229 373.073 153.599 383.063 164.939L386.843 148.469H407.093ZM304.223 211.109C304.223 236.489 319.343 252.959 344.723 252.959C361.193 252.959 374.153 243.779 383.063 233.789V185.999C374.153 176.009 361.193 166.829 344.723 166.829C319.343 166.829 304.223 185.729 304.223 211.109Z" fill="white"/>
<path d="M216.813 274.289V148.469H240.843V274.289H216.813ZM212.223 102.029C212.223 92.8486 219.513 85.5586 228.693 85.5586C238.143 85.5586 245.433 92.8486 245.433 102.029C245.433 111.209 238.143 118.499 228.693 118.499C219.513 118.499 212.223 111.209 212.223 102.029Z" fill="white"/>
<path d="M60.6709 148.47V127.41C60.6709 99.06 71.7409 78 103.871 78C113.591 78 120.611 82.59 120.611 82.59V103.92C120.611 103.92 115.211 98.79 106.571 98.79C90.9109 98.79 84.9709 111.21 84.9709 134.7V148.47H146.261V78.81H170.291V274.29H146.261V170.07H84.9709V274.29H60.6709V170.07H34.2109V148.47H60.6709Z" fill="white"/>
<path d="M643.264 235.409V169.069H672.423V149.469H643.264V98.25L621.503 113.088V149.469H599.094V169.069H621.503V242.699C621.503 252.811 625.432 260.761 631.912 266.199C638.411 271.653 647.55 274.639 658.033 274.639V275.639C637.036 275.639 621.011 263.866 620.516 243.667L620.503 242.699V170.069H598.094V148.469H620.503V112.559L644.264 96.3594V148.469H673.423V170.069H644.264V235.409L644.268 235.889C644.44 245.753 649.973 253.257 663.321 253.493L663.974 253.499C669.074 253.499 673.374 252.431 673.423 252.419V272.669C671.802 273.479 664.783 275.639 658.033 275.639V274.639C661.31 274.639 664.675 274.114 667.429 273.483C669.671 272.97 671.451 272.398 672.423 272.013V253.654C671.975 253.742 671.42 253.846 670.777 253.947C669.022 254.223 666.605 254.499 663.974 254.499C656.77 254.499 651.551 252.486 648.139 249.001C644.731 245.521 643.264 240.716 643.264 235.409Z" fill="black"/>
<path d="M562.751 187.079C562.751 174.075 558.511 163.897 551.055 156.964C543.589 150.022 532.785 146.23 519.471 146.229C498.245 146.229 483.905 157.639 477.788 163.756L476.081 165.463V79.8086H454.051V273.289H476.081V185.604L476.35 185.316C487.82 173.027 502.107 165.829 515.15 165.829C523.037 165.829 529.463 168.115 533.917 172.604C538.37 177.093 540.721 183.653 540.721 191.939V273.289H562.751V187.079ZM477.081 274.289H453.051V78.8086H477.081V163.049C483.291 156.839 497.871 145.229 519.471 145.229L520.729 145.24C547.007 145.713 563.751 161.033 563.751 187.079V274.289H539.721V191.939C539.721 175.992 530.825 167.11 515.867 166.836L515.15 166.829C502.461 166.829 488.421 173.849 477.081 185.999V274.289Z" fill="black"/>
<path d="M383.063 275.91V254.85C373.073 266.19 357.953 274.56 341.483 274.56V273.56C357.616 273.56 372.478 265.354 382.313 254.189L384.063 252.202V275.91C384.063 288.626 380.782 299.276 374.444 306.763C368.088 314.272 358.748 318.49 346.884 318.49C334.927 318.49 326.477 314.98 320.493 310.422C314.959 306.207 311.584 301.135 309.479 297.244L290.91 307.146C294.633 315.812 309.196 337.01 346.884 337.01V338.01L345.964 338.006C307.846 337.658 293.317 315.702 289.804 307.093L289.644 306.69L309.894 295.89C313.88 303.597 323.1 317.062 345.793 317.48L346.884 317.49C369.741 317.49 382.656 301.531 383.054 277.081L383.063 275.91ZM279.113 211.11C279.113 176.01 302.334 145.231 341.483 145.23L342.255 145.236C358.425 145.493 373.23 153.778 383.063 164.94L386.844 148.47H407.094V279.42L407.09 280.271C406.743 316.214 384.388 338.01 346.884 338.01V337.01C365.59 337.01 380.367 331.535 390.465 321.669C400.56 311.805 406.094 297.438 406.094 279.42V149.47H387.641L383.603 167.064L382.313 165.601C372.478 154.436 357.616 146.23 341.483 146.23C302.997 146.231 280.113 176.445 280.113 211.11C280.113 228.441 285.845 244.049 296.349 255.315C306.844 266.572 322.164 273.56 341.483 273.56V274.56C302.639 274.559 279.478 246.651 279.118 211.932L279.113 211.11ZM383.063 186C374.293 176.166 361.598 167.117 345.493 166.837L344.724 166.83C319.344 166.83 304.224 185.73 304.224 211.11L304.234 212.293C304.698 237.001 319.74 252.96 344.724 252.96C361.194 252.96 374.153 243.78 383.063 233.79V186ZM384.063 234.171L383.81 234.456C374.799 244.559 361.589 253.96 344.724 253.96C331.811 253.96 321.406 249.765 314.232 242.243C307.065 234.728 303.224 223.997 303.224 211.11C303.224 198.227 307.062 186.906 314.205 178.792C321.361 170.663 331.768 165.83 344.724 165.83C361.589 165.83 374.799 175.231 383.81 185.334L384.063 185.619V234.171Z" fill="black"/>
<path d="M240.842 148.469V274.289H216.812V148.469H240.842ZM217.812 273.289H239.842V149.469H217.812V273.289ZM244.433 102.029C244.433 93.4122 237.601 86.5587 228.692 86.5586C220.065 86.5586 213.223 93.4016 213.223 102.029C213.223 110.657 220.065 117.499 228.692 117.499V118.499L228.264 118.494C219.429 118.275 212.447 111.293 212.228 102.458L212.223 102.029C212.223 92.8493 219.512 85.5586 228.692 85.5586L229.134 85.5645C238.368 85.7875 245.433 92.9928 245.433 102.029L245.427 102.458C245.204 111.435 237.995 118.499 228.692 118.499V117.499C237.601 117.499 244.432 110.646 244.433 102.029Z" fill="black"/>
<path d="M146.261 148.47V78.8096H170.291V274.29H146.261V170.07H84.9707V274.29H60.6709V170.07H34.2109V148.47H60.6709V127.41C60.6709 99.0602 71.7411 78 103.871 78L104.774 78.0137C114.023 78.283 120.611 82.5898 120.611 82.5898V103.92C120.611 103.92 115.543 99.1055 107.371 98.8047L106.571 98.79C90.9113 98.79 84.9707 111.21 84.9707 134.7V148.47H146.261ZM61.6709 149.47H35.2109V169.07H61.6709V273.29H83.9707V169.07H147.261V273.29H169.291V79.8096H147.261V149.47H83.9707V134.7C83.9707 122.911 85.454 113.716 89.0293 107.441C90.8285 104.284 93.1641 101.856 96.1045 100.224C99.041 98.5938 102.523 97.79 106.571 97.79C111.092 97.7901 114.762 99.1325 117.298 100.471C118.221 100.958 118.997 101.447 119.611 101.872V83.1553C119.426 83.0477 119.186 82.9111 118.894 82.7559C118.114 82.3415 116.968 81.7849 115.525 81.2275C112.637 80.1114 108.576 79 103.871 79C88.0436 79 77.5686 84.1734 71.0146 92.6836C64.4231 101.243 61.6709 113.338 61.6709 127.41V149.47Z" fill="black"/>
<path d="M591.094 183.069V161.469H613.504V125.559L637.264 109.359V161.469H666.424V183.069H637.264V248.409C637.264 258.669 642.934 266.499 656.974 266.499C662.104 266.499 666.424 265.419 666.424 265.419V285.669C664.804 286.479 657.784 288.639 651.034 288.639C629.704 288.639 613.504 276.489 613.504 255.699V183.069H591.094Z" fill="white"/>
<path d="M446.051 287.289V91.8086H470.081V176.049C476.291 169.839 490.871 158.229 512.471 158.229C539.471 158.229 556.751 173.619 556.751 200.079V287.289H532.721V204.939C532.721 188.739 523.541 179.829 508.151 179.829C495.461 179.829 481.421 186.849 470.081 198.999V287.289H446.051Z" fill="white"/>
<path d="M400.093 161.469V292.419C400.093 328.869 377.683 351.009 339.883 351.009C300.463 351.009 285.883 328.059 282.643 319.689L302.893 308.889C306.943 316.719 316.393 330.489 339.883 330.489C363.103 330.489 376.063 314.019 376.063 288.909V267.849C366.073 279.189 350.953 287.559 334.483 287.559C295.333 287.559 272.113 259.209 272.113 224.109C272.113 189.009 295.333 158.229 334.483 158.229C350.953 158.229 366.073 166.599 376.063 177.939L379.843 161.469H400.093ZM297.223 224.109C297.223 249.489 312.343 265.959 337.723 265.959C354.193 265.959 367.153 256.779 376.063 246.789V198.999C367.153 189.009 354.193 179.829 337.723 179.829C312.343 179.829 297.223 198.729 297.223 224.109Z" fill="white"/>
<path d="M209.813 287.289V161.469H233.843V287.289H209.813ZM205.223 115.029C205.223 105.849 212.513 98.5586 221.693 98.5586C231.143 98.5586 238.433 105.849 238.433 115.029C238.433 124.209 231.143 131.499 221.693 131.499C212.513 131.499 205.223 124.209 205.223 115.029Z" fill="white"/>
<path d="M53.6709 161.47V140.41C53.6709 112.06 64.7409 91 96.8709 91C106.591 91 113.611 95.59 113.611 95.59V116.92C113.611 116.92 108.211 111.79 99.5709 111.79C83.9109 111.79 77.9709 124.21 77.9709 147.7V161.47H139.261V91.81H163.291V287.29H139.261V183.07H77.9709V287.29H53.6709V183.07H27.2109V161.47H53.6709Z" fill="white"/>
<path d="M636.264 248.409V182.069H665.423V162.469H636.264V111.25L614.503 126.088V162.469H592.094V182.069H614.503V255.699C614.503 265.811 618.432 273.761 624.912 279.199C631.411 284.653 640.55 287.639 651.033 287.639V288.639C630.036 288.639 614.011 276.866 613.516 256.667L613.503 255.699V183.069H591.094V161.469H613.503V125.559L637.264 109.359V161.469H666.423V183.069H637.264V248.409L637.268 248.889C637.44 258.753 642.973 266.257 656.321 266.493L656.974 266.499C662.074 266.499 666.374 265.431 666.423 265.419V285.669C664.802 286.479 657.783 288.639 651.033 288.639V287.639C654.31 287.639 657.675 287.114 660.429 286.483C662.671 285.97 664.451 285.398 665.423 285.013V266.654C664.975 266.742 664.42 266.846 663.777 266.947C662.022 267.223 659.605 267.499 656.974 267.499C649.77 267.499 644.551 265.486 641.139 262.001C637.731 258.521 636.264 253.716 636.264 248.409Z" fill="black"/>
<path d="M555.751 200.079C555.751 187.075 551.511 176.897 544.055 169.964C536.589 163.022 525.785 159.23 512.471 159.229C491.245 159.229 476.905 170.639 470.788 176.756L469.081 178.463V92.8086H447.051V286.289H469.081V198.604L469.35 198.316C480.82 186.027 495.107 178.829 508.15 178.829C516.037 178.829 522.463 181.115 526.917 185.604C531.37 190.093 533.721 196.653 533.721 204.939V286.289H555.751V200.079ZM470.081 287.289H446.051V91.8086H470.081V176.049C476.291 169.839 490.871 158.229 512.471 158.229L513.729 158.24C540.007 158.713 556.751 174.033 556.751 200.079V287.289H532.721V204.939C532.721 188.992 523.825 180.11 508.867 179.836L508.15 179.829C495.461 179.829 481.421 186.849 470.081 198.999V287.289Z" fill="black"/>
<path d="M376.063 288.91V267.85C366.073 279.19 350.953 287.56 334.483 287.56V286.56C350.616 286.56 365.478 278.354 375.313 267.189L377.063 265.202V288.91C377.063 301.626 373.782 312.276 367.444 319.763C361.088 327.272 351.748 331.49 339.884 331.49C327.927 331.49 319.477 327.98 313.493 323.422C307.959 319.207 304.584 314.135 302.479 310.244L283.91 320.146C287.633 328.812 302.196 350.01 339.884 350.01V351.01L338.964 351.006C300.846 350.658 286.317 328.702 282.804 320.093L282.644 319.69L302.894 308.89C306.88 316.597 316.1 330.062 338.793 330.48L339.884 330.49C362.741 330.49 375.656 314.531 376.054 290.081L376.063 288.91ZM272.113 224.11C272.113 189.01 295.334 158.231 334.483 158.23L335.255 158.236C351.425 158.493 366.23 166.778 376.063 177.94L379.844 161.47H400.094V292.42L400.09 293.271C399.743 329.214 377.388 351.01 339.884 351.01V350.01C358.59 350.01 373.367 344.535 383.465 334.669C393.56 324.805 399.094 310.438 399.094 292.42V162.47H380.641L376.603 180.064L375.313 178.601C365.478 167.436 350.616 159.23 334.483 159.23C295.997 159.231 273.113 189.445 273.113 224.11C273.113 241.441 278.845 257.049 289.349 268.315C299.844 279.572 315.164 286.56 334.483 286.56V287.56C295.639 287.559 272.478 259.651 272.118 224.932L272.113 224.11ZM376.063 199C367.293 189.166 354.598 180.117 338.493 179.837L337.724 179.83C312.344 179.83 297.224 198.73 297.224 224.11L297.234 225.293C297.698 250.001 312.74 265.96 337.724 265.96C354.194 265.96 367.153 256.78 376.063 246.79V199ZM377.063 247.171L376.81 247.456C367.799 257.559 354.589 266.96 337.724 266.96C324.811 266.96 314.406 262.765 307.232 255.243C300.065 247.728 296.224 236.997 296.224 224.11C296.224 211.227 300.062 199.906 307.205 191.792C314.361 183.663 324.768 178.83 337.724 178.83C354.589 178.83 367.799 188.231 376.81 198.334L377.063 198.619V247.171Z" fill="black"/>
<path d="M233.842 161.469V287.289H209.812V161.469H233.842ZM210.812 286.289H232.842V162.469H210.812V286.289ZM237.433 115.029C237.433 106.412 230.601 99.5587 221.692 99.5586C213.065 99.5586 206.223 106.402 206.223 115.029C206.223 123.657 213.065 130.499 221.692 130.499V131.499L221.264 131.494C212.429 131.275 205.447 124.293 205.228 115.458L205.223 115.029C205.223 105.849 212.512 98.5586 221.692 98.5586L222.134 98.5645C231.368 98.7875 238.433 105.993 238.433 115.029L238.427 115.458C238.204 124.435 230.995 131.499 221.692 131.499V130.499C230.601 130.499 237.432 123.646 237.433 115.029Z" fill="black"/>
<path d="M139.261 161.47V91.8096H163.291V287.29H139.261V183.07H77.9707V287.29H53.6709V183.07H27.2109V161.47H53.6709V140.41C53.6709 112.06 64.7411 91 96.8711 91L97.7744 91.0137C107.023 91.283 113.611 95.5898 113.611 95.5898V116.92C113.611 116.92 108.543 112.105 100.371 111.805L99.5713 111.79C83.9113 111.79 77.9707 124.21 77.9707 147.7V161.47H139.261ZM54.6709 162.47H28.2109V182.07H54.6709V286.29H76.9707V182.07H140.261V286.29H162.291V92.8096H140.261V162.47H76.9707V147.7C76.9707 135.911 78.454 126.716 82.0293 120.441C83.8285 117.284 86.1641 114.856 89.1045 113.224C92.041 111.594 95.5231 110.79 99.5713 110.79C104.092 110.79 107.762 112.132 110.298 113.471C111.221 113.958 111.997 114.447 112.611 114.872V96.1553C112.426 96.0477 112.186 95.9111 111.894 95.7559C111.114 95.3415 109.968 94.7849 108.525 94.2275C105.637 93.1114 101.576 92 96.8711 92C81.0436 92 70.5686 97.1734 64.0146 105.684C57.4231 114.243 54.6709 126.338 54.6709 140.41V162.47Z" fill="black"/>
<path d="M584.094 196.069V174.469H606.504V138.559L630.264 122.359V174.469H659.424V196.069H630.264V261.409C630.264 271.669 635.934 279.499 649.974 279.499C655.104 279.499 659.424 278.419 659.424 278.419V298.669C657.804 299.479 650.784 301.639 644.034 301.639C622.704 301.639 606.504 289.489 606.504 268.699V196.069H584.094Z" fill="white"/>
<path d="M439.051 300.289V104.809H463.081V189.049C469.291 182.839 483.871 171.229 505.471 171.229C532.471 171.229 549.751 186.619 549.751 213.079V300.289H525.721V217.939C525.721 201.739 516.541 192.829 501.151 192.829C488.461 192.829 474.421 199.849 463.081 211.999V300.289H439.051Z" fill="white"/>
<path d="M393.093 174.469V305.419C393.093 341.869 370.683 364.009 332.883 364.009C293.463 364.009 278.883 341.059 275.643 332.689L295.893 321.889C299.943 329.719 309.393 343.489 332.883 343.489C356.103 343.489 369.063 327.019 369.063 301.909V280.849C359.073 292.189 343.953 300.559 327.483 300.559C288.333 300.559 265.113 272.209 265.113 237.109C265.113 202.009 288.333 171.229 327.483 171.229C343.953 171.229 359.073 179.599 369.063 190.939L372.843 174.469H393.093ZM290.223 237.109C290.223 262.489 305.343 278.959 330.723 278.959C347.193 278.959 360.153 269.779 369.063 259.789V211.999C360.153 202.009 347.193 192.829 330.723 192.829C305.343 192.829 290.223 211.729 290.223 237.109Z" fill="white"/>
<path d="M202.813 300.289V174.469H226.843V300.289H202.813ZM198.223 128.029C198.223 118.849 205.513 111.559 214.693 111.559C224.143 111.559 231.433 118.849 231.433 128.029C231.433 137.209 224.143 144.499 214.693 144.499C205.513 144.499 198.223 137.209 198.223 128.029Z" fill="white"/>
<path d="M46.6709 174.47V153.41C46.6709 125.06 57.7409 104 89.8709 104C99.5909 104 106.611 108.59 106.611 108.59V129.92C106.611 129.92 101.211 124.79 92.5709 124.79C76.9109 124.79 70.9709 137.21 70.9709 160.7V174.47H132.261V104.81H156.291V300.29H132.261V196.07H70.9709V300.29H46.6709V196.07H20.2109V174.47H46.6709Z" fill="white"/>
<path d="M629.264 261.409V195.069H658.423V175.469H629.264V124.25L607.503 139.088V175.469H585.094V195.069H607.503V268.699C607.503 278.811 611.432 286.761 617.912 292.199C624.411 297.653 633.55 300.639 644.033 300.639V301.639C623.036 301.639 607.011 289.866 606.516 269.667L606.503 268.699V196.069H584.094V174.469H606.503V138.559L630.264 122.359V174.469H659.423V196.069H630.264V261.409L630.268 261.889C630.44 271.753 635.973 279.257 649.321 279.493L649.974 279.499C655.074 279.499 659.374 278.431 659.423 278.419V298.669C657.802 299.479 650.783 301.639 644.033 301.639V300.639C647.31 300.639 650.675 300.114 653.429 299.483C655.671 298.97 657.451 298.398 658.423 298.013V279.654C657.975 279.742 657.42 279.846 656.777 279.947C655.022 280.223 652.605 280.499 649.974 280.499C642.77 280.499 637.551 278.486 634.139 275.001C630.731 271.521 629.264 266.716 629.264 261.409Z" fill="black"/>
<path d="M548.751 213.079C548.751 200.075 544.511 189.897 537.055 182.964C529.589 176.022 518.785 172.23 505.471 172.229C484.245 172.229 469.905 183.639 463.788 189.756L462.081 191.463V105.809H440.051V299.289H462.081V211.604L462.35 211.316C473.82 199.027 488.107 191.829 501.15 191.829C509.037 191.829 515.463 194.115 519.917 198.604C524.37 203.093 526.721 209.653 526.721 217.939V299.289H548.751V213.079ZM463.081 300.289H439.051V104.809H463.081V189.049C469.291 182.839 483.871 171.229 505.471 171.229L506.729 171.24C533.007 171.713 549.751 187.033 549.751 213.079V300.289H525.721V217.939C525.721 201.992 516.825 193.11 501.867 192.836L501.15 192.829C488.461 192.829 474.421 199.849 463.081 211.999V300.289Z" fill="black"/>
<path d="M369.063 301.91V280.85C359.073 292.19 343.953 300.56 327.483 300.56V299.56C343.616 299.56 358.478 291.354 368.313 280.189L370.063 278.202V301.91C370.063 314.626 366.782 325.276 360.444 332.763C354.088 340.272 344.748 344.49 332.884 344.49C320.927 344.49 312.477 340.98 306.493 336.422C300.959 332.207 297.584 327.135 295.479 323.244L276.91 333.146C280.633 341.812 295.196 363.01 332.884 363.01V364.01L331.964 364.006C293.846 363.658 279.317 341.702 275.804 333.093L275.644 332.69L295.894 321.89C299.88 329.597 309.1 343.062 331.793 343.48L332.884 343.49C355.741 343.49 368.656 327.531 369.054 303.081L369.063 301.91ZM265.113 237.11C265.113 202.01 288.334 171.231 327.483 171.23L328.255 171.236C344.425 171.493 359.23 179.778 369.063 190.94L372.844 174.47H393.094V305.42L393.09 306.271C392.743 342.214 370.388 364.01 332.884 364.01V363.01C351.59 363.01 366.367 357.535 376.465 347.669C386.56 337.805 392.094 323.438 392.094 305.42V175.47H373.641L369.603 193.064L368.313 191.601C358.478 180.436 343.616 172.23 327.483 172.23C288.997 172.231 266.113 202.445 266.113 237.11C266.113 254.441 271.845 270.049 282.349 281.315C292.844 292.572 308.164 299.56 327.483 299.56V300.56C288.639 300.559 265.478 272.651 265.118 237.932L265.113 237.11ZM369.063 212C360.293 202.166 347.598 193.117 331.493 192.837L330.724 192.83C305.344 192.83 290.224 211.73 290.224 237.11L290.234 238.293C290.698 263.001 305.74 278.96 330.724 278.96C347.194 278.96 360.153 269.78 369.063 259.79V212ZM370.063 260.171L369.81 260.456C360.799 270.559 347.589 279.96 330.724 279.96C317.811 279.96 307.406 275.765 300.232 268.243C293.065 260.728 289.224 249.997 289.224 237.11C289.224 224.227 293.062 212.906 300.205 204.792C307.361 196.663 317.768 191.83 330.724 191.83C347.589 191.83 360.799 201.231 369.81 211.334L370.063 211.619V260.171Z" fill="black"/>
<path d="M226.842 174.469V300.289H202.812V174.469H226.842ZM203.812 299.289H225.842V175.469H203.812V299.289ZM230.433 128.029C230.433 119.412 223.601 112.559 214.692 112.559C206.065 112.559 199.223 119.402 199.223 128.029C199.223 136.657 206.065 143.499 214.692 143.499V144.499L214.264 144.494C205.429 144.275 198.447 137.293 198.228 128.458L198.223 128.029C198.223 118.849 205.512 111.559 214.692 111.559L215.134 111.564C224.368 111.787 231.433 118.993 231.433 128.029L231.427 128.458C231.204 137.435 223.995 144.499 214.692 144.499V143.499C223.601 143.499 230.432 136.646 230.433 128.029Z" fill="black"/>
<path d="M132.261 174.47V104.81H156.291V300.29H132.261V196.07H70.9707V300.29H46.6709V196.07H20.2109V174.47H46.6709V153.41C46.6709 125.06 57.7411 104 89.8711 104L90.7744 104.014C100.023 104.283 106.611 108.59 106.611 108.59V129.92C106.611 129.92 101.543 125.105 93.3711 124.805L92.5713 124.79C76.9113 124.79 70.9707 137.21 70.9707 160.7V174.47H132.261ZM47.6709 175.47H21.2109V195.07H47.6709V299.29H69.9707V195.07H133.261V299.29H155.291V105.81H133.261V175.47H69.9707V160.7C69.9707 148.911 71.454 139.716 75.0293 133.441C76.8285 130.284 79.1641 127.856 82.1045 126.224C85.041 124.594 88.5231 123.79 92.5713 123.79C97.0921 123.79 100.762 125.132 103.298 126.471C104.221 126.958 104.997 127.447 105.611 127.872V109.155C105.426 109.048 105.186 108.911 104.894 108.756C104.114 108.342 102.968 107.785 101.525 107.228C98.6366 106.111 94.576 105 89.8711 105C74.0436 105 63.5686 110.173 57.0146 118.684C50.4231 127.243 47.6709 139.338 47.6709 153.41V175.47Z" fill="black"/>
<path d="M577.094 209.069V187.469H599.504V151.559L623.264 135.359V187.469H652.424V209.069H623.264V274.409C623.264 284.669 628.934 292.499 642.974 292.499C648.104 292.499 652.424 291.419 652.424 291.419V311.669C650.804 312.479 643.784 314.639 637.034 314.639C615.704 314.639 599.504 302.489 599.504 281.699V209.069H577.094Z" fill="white"/>
<path d="M432.051 313.289V117.809H456.081V202.049C462.291 195.839 476.871 184.229 498.471 184.229C525.471 184.229 542.751 199.619 542.751 226.079V313.289H518.721V230.939C518.721 214.739 509.541 205.829 494.151 205.829C481.461 205.829 467.421 212.849 456.081 224.999V313.289H432.051Z" fill="white"/>
<path d="M386.093 187.469V318.419C386.093 354.869 363.683 377.009 325.883 377.009C286.463 377.009 271.883 354.059 268.643 345.689L288.893 334.889C292.943 342.719 302.393 356.489 325.883 356.489C349.103 356.489 362.063 340.019 362.063 314.909V293.849C352.073 305.189 336.953 313.559 320.483 313.559C281.333 313.559 258.113 285.209 258.113 250.109C258.113 215.009 281.333 184.229 320.483 184.229C336.953 184.229 352.073 192.599 362.063 203.939L365.843 187.469H386.093ZM283.223 250.109C283.223 275.489 298.343 291.959 323.723 291.959C340.193 291.959 353.153 282.779 362.063 272.789V224.999C353.153 215.009 340.193 205.829 323.723 205.829C298.343 205.829 283.223 224.729 283.223 250.109Z" fill="white"/>
<path d="M195.813 313.289V187.469H219.843V313.289H195.813ZM191.223 141.029C191.223 131.849 198.513 124.559 207.693 124.559C217.143 124.559 224.433 131.849 224.433 141.029C224.433 150.209 217.143 157.499 207.693 157.499C198.513 157.499 191.223 150.209 191.223 141.029Z" fill="white"/>
<path d="M39.6709 187.47V166.41C39.6709 138.06 50.7409 117 82.8709 117C92.5909 117 99.6109 121.59 99.6109 121.59V142.92C99.6109 142.92 94.2109 137.79 85.5709 137.79C69.9109 137.79 63.9709 150.21 63.9709 173.7V187.47H125.261V117.81H149.291V313.29H125.261V209.07H63.9709V313.29H39.6709V209.07H13.2109V187.47H39.6709Z" fill="white"/>
<path d="M622.264 274.409V208.069H651.423V188.469H622.264V137.25L600.503 152.088V188.469H578.094V208.069H600.503V281.699C600.503 291.811 604.432 299.761 610.912 305.199C617.411 310.653 626.55 313.639 637.033 313.639V314.639C616.036 314.639 600.011 302.866 599.516 282.667L599.503 281.699V209.069H577.094V187.469H599.503V151.559L623.264 135.359V187.469H652.423V209.069H623.264V274.409L623.268 274.889C623.44 284.753 628.973 292.257 642.321 292.493L642.974 292.499C648.074 292.499 652.374 291.431 652.423 291.419V311.669C650.802 312.479 643.783 314.639 637.033 314.639V313.639C640.31 313.639 643.675 313.114 646.429 312.483C648.671 311.97 650.451 311.398 651.423 311.013V292.654C650.975 292.742 650.42 292.846 649.777 292.947C648.022 293.223 645.605 293.499 642.974 293.499C635.77 293.499 630.551 291.486 627.139 288.001C623.731 284.521 622.264 279.716 622.264 274.409Z" fill="black"/>
<path d="M541.751 226.079C541.751 213.075 537.511 202.897 530.055 195.964C522.589 189.022 511.785 185.23 498.471 185.229C477.245 185.229 462.905 196.639 456.788 202.756L455.081 204.463V118.809H433.051V312.289H455.081V224.604L455.35 224.316C466.82 212.027 481.107 204.829 494.15 204.829C502.037 204.829 508.463 207.115 512.917 211.604C517.37 216.093 519.721 222.653 519.721 230.939V312.289H541.751V226.079ZM456.081 313.289H432.051V117.809H456.081V202.049C462.291 195.839 476.871 184.229 498.471 184.229L499.729 184.24C526.007 184.713 542.751 200.033 542.751 226.079V313.289H518.721V230.939C518.721 214.992 509.825 206.11 494.867 205.836L494.15 205.829C481.461 205.829 467.421 212.849 456.081 224.999V313.289Z" fill="black"/>
<path d="M362.063 314.91V293.85C352.073 305.19 336.953 313.56 320.483 313.56V312.56C336.616 312.56 351.478 304.354 361.313 293.189L363.063 291.202V314.91C363.063 327.626 359.782 338.276 353.444 345.763C347.088 353.272 337.748 357.49 325.884 357.49C313.927 357.49 305.477 353.98 299.493 349.422C293.959 345.207 290.584 340.135 288.479 336.244L269.91 346.146C273.633 354.812 288.196 376.01 325.884 376.01V377.01L324.964 377.006C286.846 376.658 272.317 354.702 268.804 346.093L268.644 345.69L288.894 334.89C292.88 342.597 302.1 356.062 324.793 356.48L325.884 356.49C348.741 356.49 361.656 340.531 362.054 316.081L362.063 314.91ZM258.113 250.11C258.113 215.01 281.334 184.231 320.483 184.23L321.255 184.236C337.425 184.493 352.23 192.778 362.063 203.94L365.844 187.47H386.094V318.42L386.09 319.271C385.743 355.214 363.388 377.01 325.884 377.01V376.01C344.59 376.01 359.367 370.535 369.465 360.669C379.56 350.805 385.094 336.438 385.094 318.42V188.47H366.641L362.603 206.064L361.313 204.601C351.478 193.436 336.616 185.23 320.483 185.23C281.997 185.231 259.113 215.445 259.113 250.11C259.113 267.441 264.845 283.049 275.349 294.315C285.844 305.572 301.164 312.56 320.483 312.56V313.56C281.639 313.559 258.478 285.651 258.118 250.932L258.113 250.11ZM362.063 225C353.293 215.166 340.598 206.117 324.493 205.837L323.724 205.83C298.344 205.83 283.224 224.73 283.224 250.11L283.234 251.293C283.698 276.001 298.74 291.96 323.724 291.96C340.194 291.96 353.153 282.78 362.063 272.79V225ZM363.063 273.171L362.81 273.456C353.799 283.559 340.589 292.96 323.724 292.96C310.811 292.96 300.406 288.765 293.232 281.243C286.065 273.728 282.224 262.997 282.224 250.11C282.224 237.227 286.062 225.906 293.205 217.792C300.361 209.663 310.768 204.83 323.724 204.83C340.589 204.83 353.799 214.231 362.81 224.334L363.063 224.619V273.171Z" fill="black"/>
<path d="M219.842 187.469V313.289H195.812V187.469H219.842ZM196.812 312.289H218.842V188.469H196.812V312.289ZM223.433 141.029C223.433 132.412 216.601 125.559 207.692 125.559C199.065 125.559 192.223 132.402 192.223 141.029C192.223 149.657 199.065 156.499 207.692 156.499V157.499L207.264 157.494C198.429 157.275 191.447 150.293 191.228 141.458L191.223 141.029C191.223 131.849 198.512 124.559 207.692 124.559L208.134 124.564C217.368 124.787 224.433 131.993 224.433 141.029L224.427 141.458C224.204 150.435 216.995 157.499 207.692 157.499V156.499C216.601 156.499 223.432 149.646 223.433 141.029Z" fill="black"/>
<path d="M125.261 187.47V117.81H149.291V313.29H125.261V209.07H63.9707V313.29H39.6709V209.07H13.2109V187.47H39.6709V166.41C39.6709 138.06 50.7411 117 82.8711 117L83.7744 117.014C93.023 117.283 99.6113 121.59 99.6113 121.59V142.92C99.6113 142.92 94.5431 138.105 86.3711 137.805L85.5713 137.79C69.9113 137.79 63.9707 150.21 63.9707 173.7V187.47H125.261ZM40.6709 188.47H14.2109V208.07H40.6709V312.29H62.9707V208.07H126.261V312.29H148.291V118.81H126.261V188.47H62.9707V173.7C62.9707 161.911 64.454 152.716 68.0293 146.441C69.8285 143.284 72.1641 140.856 75.1045 139.224C78.041 137.594 81.5231 136.79 85.5713 136.79C90.0921 136.79 93.7622 138.132 96.2979 139.471C97.2214 139.958 97.9967 140.447 98.6113 140.872V122.155C98.4257 122.048 98.1858 121.911 97.8936 121.756C97.1136 121.342 95.9681 120.785 94.5254 120.228C91.6366 119.111 87.576 118 82.8711 118C67.0436 118 56.5686 123.173 50.0146 131.684C43.4231 140.243 40.6709 152.338 40.6709 166.41V188.47Z" fill="black"/>
<path d="M570.094 222.069V200.469H592.504V164.559L616.264 148.359V200.469H645.424V222.069H616.264V287.409C616.264 297.669 621.934 305.499 635.974 305.499C641.104 305.499 645.424 304.419 645.424 304.419V324.669C643.804 325.479 636.784 327.639 630.034 327.639C608.704 327.639 592.504 315.489 592.504 294.699V222.069H570.094Z" fill="white"/>
<path d="M425.051 326.289V130.809H449.081V215.049C455.291 208.839 469.871 197.229 491.471 197.229C518.471 197.229 535.751 212.619 535.751 239.079V326.289H511.721V243.939C511.721 227.739 502.541 218.829 487.151 218.829C474.461 218.829 460.421 225.849 449.081 237.999V326.289H425.051Z" fill="white"/>
<path d="M379.093 200.469V331.419C379.093 367.869 356.683 390.009 318.883 390.009C279.463 390.009 264.883 367.059 261.643 358.689L281.893 347.889C285.943 355.719 295.393 369.489 318.883 369.489C342.103 369.489 355.063 353.019 355.063 327.909V306.849C345.073 318.189 329.953 326.559 313.483 326.559C274.333 326.559 251.113 298.209 251.113 263.109C251.113 228.009 274.333 197.229 313.483 197.229C329.953 197.229 345.073 205.599 355.063 216.939L358.843 200.469H379.093ZM276.223 263.109C276.223 288.489 291.343 304.959 316.723 304.959C333.193 304.959 346.153 295.779 355.063 285.789V237.999C346.153 228.009 333.193 218.829 316.723 218.829C291.343 218.829 276.223 237.729 276.223 263.109Z" fill="white"/>
<path d="M188.813 326.289V200.469H212.843V326.289H188.813ZM184.223 154.029C184.223 144.849 191.513 137.559 200.693 137.559C210.143 137.559 217.433 144.849 217.433 154.029C217.433 163.209 210.143 170.499 200.693 170.499C191.513 170.499 184.223 163.209 184.223 154.029Z" fill="white"/>
<path d="M32.6709 200.47V179.41C32.6709 151.06 43.7409 130 75.8709 130C85.5909 130 92.6109 134.59 92.6109 134.59V155.92C92.6109 155.92 87.2109 150.79 78.5709 150.79C62.9109 150.79 56.9709 163.21 56.9709 186.7V200.47H118.261V130.81H142.291V326.29H118.261V222.07H56.9709V326.29H32.6709V222.07H6.21094V200.47H32.6709Z" fill="white"/>
<path d="M615.264 287.409V221.069H644.423V201.469H615.264V150.25L593.503 165.088V201.469H571.094V221.069H593.503V294.699C593.503 304.811 597.432 312.761 603.912 318.199C610.411 323.653 619.55 326.639 630.033 326.639V327.639C609.036 327.639 593.011 315.866 592.516 295.667L592.503 294.699V222.069H570.094V200.469H592.503V164.559L616.264 148.359V200.469H645.423V222.069H616.264V287.409L616.268 287.889C616.44 297.753 621.973 305.257 635.321 305.493L635.974 305.499C641.074 305.499 645.374 304.431 645.423 304.419V324.669C643.802 325.479 636.783 327.639 630.033 327.639V326.639C633.31 326.639 636.675 326.114 639.429 325.483C641.671 324.97 643.451 324.398 644.423 324.013V305.654C643.975 305.742 643.42 305.846 642.777 305.947C641.022 306.223 638.605 306.499 635.974 306.499C628.77 306.499 623.551 304.486 620.139 301.001C616.731 297.521 615.264 292.716 615.264 287.409Z" fill="black"/>
<path d="M534.751 239.079C534.751 226.075 530.511 215.897 523.055 208.964C515.589 202.022 504.785 198.23 491.471 198.229C470.245 198.229 455.905 209.639 449.788 215.756L448.081 217.463V131.809H426.051V325.289H448.081V237.604L448.35 237.316C459.82 225.027 474.107 217.829 487.15 217.829C495.037 217.829 501.463 220.115 505.917 224.604C510.37 229.093 512.721 235.653 512.721 243.939V325.289H534.751V239.079ZM449.081 326.289H425.051V130.809H449.081V215.049C455.291 208.839 469.871 197.229 491.471 197.229L492.729 197.24C519.007 197.713 535.751 213.033 535.751 239.079V326.289H511.721V243.939C511.721 227.992 502.825 219.11 487.867 218.836L487.15 218.829C474.461 218.829 460.421 225.849 449.081 237.999V326.289Z" fill="black"/>
<path d="M355.063 327.91V306.85C345.073 318.19 329.953 326.56 313.483 326.56V325.56C329.616 325.56 344.478 317.354 354.313 306.189L356.063 304.202V327.91C356.063 340.626 352.782 351.276 346.444 358.763C340.088 366.272 330.748 370.49 318.884 370.49C306.927 370.49 298.477 366.98 292.493 362.422C286.959 358.207 283.584 353.135 281.479 349.244L262.91 359.146C266.633 367.812 281.196 389.01 318.884 389.01V390.01L317.964 390.006C279.846 389.658 265.317 367.702 261.804 359.093L261.644 358.69L281.894 347.89C285.88 355.597 295.1 369.062 317.793 369.48L318.884 369.49C341.741 369.49 354.656 353.531 355.054 329.081L355.063 327.91ZM251.113 263.11C251.113 228.01 274.334 197.231 313.483 197.23L314.255 197.236C330.425 197.493 345.23 205.778 355.063 216.94L358.844 200.47H379.094V331.42L379.09 332.271C378.743 368.214 356.388 390.01 318.884 390.01V389.01C337.59 389.01 352.367 383.535 362.465 373.669C372.56 363.805 378.094 349.438 378.094 331.42V201.47H359.641L355.603 219.064L354.313 217.601C344.478 206.436 329.616 198.23 313.483 198.23C274.997 198.231 252.113 228.445 252.113 263.11C252.113 280.441 257.845 296.049 268.349 307.315C278.844 318.572 294.164 325.56 313.483 325.56V326.56C274.639 326.559 251.478 298.651 251.118 263.932L251.113 263.11ZM355.063 238C346.293 228.166 333.598 219.117 317.493 218.837L316.724 218.83C291.344 218.83 276.224 237.73 276.224 263.11L276.234 264.293C276.698 289.001 291.74 304.96 316.724 304.96C333.194 304.96 346.153 295.78 355.063 285.79V238ZM356.063 286.171L355.81 286.456C346.799 296.559 333.589 305.96 316.724 305.96C303.811 305.96 293.406 301.765 286.232 294.243C279.065 286.728 275.224 275.997 275.224 263.11C275.224 250.227 279.062 238.906 286.205 230.792C293.361 222.663 303.768 217.83 316.724 217.83C333.589 217.83 346.799 227.231 355.81 237.334L356.063 237.619V286.171Z" fill="black"/>
<path d="M212.842 200.469V326.289H188.812V200.469H212.842ZM189.812 325.289H211.842V201.469H189.812V325.289ZM216.433 154.029C216.433 145.412 209.601 138.559 200.692 138.559C192.065 138.559 185.223 145.402 185.223 154.029C185.223 162.657 192.065 169.499 200.692 169.499V170.499L200.264 170.494C191.429 170.275 184.447 163.293 184.228 154.458L184.223 154.029C184.223 144.849 191.512 137.559 200.692 137.559L201.134 137.564C210.368 137.787 217.433 144.993 217.433 154.029L217.427 154.458C217.204 163.435 209.995 170.499 200.692 170.499V169.499C209.601 169.499 216.432 162.646 216.433 154.029Z" fill="black"/>
<path d="M118.261 200.47V130.81H142.291V326.29H118.261V222.07H56.9707V326.29H32.6709V222.07H6.21094V200.47H32.6709V179.41C32.6709 151.06 43.7411 130 75.8711 130L76.7744 130.014C86.023 130.283 92.6113 134.59 92.6113 134.59V155.92C92.6113 155.92 87.5431 151.105 79.3711 150.805L78.5713 150.79C62.9113 150.79 56.9707 163.21 56.9707 186.7V200.47H118.261ZM33.6709 201.47H7.21094V221.07H33.6709V325.29H55.9707V221.07H119.261V325.29H141.291V131.81H119.261V201.47H55.9707V186.7C55.9707 174.911 57.454 165.716 61.0293 159.441C62.8285 156.284 65.1641 153.856 68.1045 152.224C71.041 150.594 74.5231 149.79 78.5713 149.79C83.0921 149.79 86.7622 151.132 89.2979 152.471C90.2214 152.958 90.9967 153.447 91.6113 153.872V135.155C91.4257 135.048 91.1858 134.911 90.8936 134.756C90.1136 134.342 88.9681 133.785 87.5254 133.228C84.6366 132.111 80.576 131 75.8711 131C60.0436 131 49.5686 136.173 43.0146 144.684C36.4231 153.243 33.6709 165.338 33.6709 179.41V201.47Z" fill="black"/>
</svg>
