<svg width="685" height="577" viewBox="0 0 685 577" fill="none" xmlns="http://www.w3.org/2000/svg">
  
<path d="M291.065 437.999V248.038H56.9411V437.999H0.678711V14.519H56.9411V197.221H291.065V14.519H347.328V437.999H291.065Z" fill="white"/>
  
  <!-- cercle 93 --> 
   <g class="cercle_93">
  
<path d="M55.5047 352.82C55.5045 337.998 43.4888 325.982 28.6669 325.982C13.8451 325.983 1.8293 337.998 1.8291 352.82C1.8291 367.642 13.845 379.658 28.6669 379.658V380.897L27.9423 380.887C12.7711 380.503 0.59082 368.084 0.59082 352.82C0.59102 337.314 13.161 324.744 28.6669 324.744C44.1729 324.744 56.7437 337.314 56.7439 352.82L56.7341 353.545C56.35 368.716 43.9309 380.897 28.6669 380.897V379.658C43.489 379.658 55.5047 367.642 55.5047 352.82Z" fill="#262626"/>
  
<path d="M30.7034 347.249V345.359H39.1413V346.454L34.8472 351.028C37.8101 351.199 39.8283 353.024 39.8283 355.601C39.8283 358.435 37.7242 360.646 34.5252 360.646C32.2922 360.646 30.4887 359.551 29.6943 357.919L31.4978 357.039C31.9702 358.113 33.1081 358.929 34.4822 358.929C36.3287 358.929 37.8316 357.576 37.8316 355.601C37.8316 353.754 36.4145 352.724 34.5037 352.724C33.7952 352.724 33.2584 352.874 32.7861 353.218L31.7984 351.8L35.9422 347.249H30.7034Z" fill="#262626"/>
  
<path d="M22.7622 355.172C19.5631 355.172 17.5234 352.982 17.5234 350.148C17.5234 347.313 19.5631 345.102 22.7622 345.102C25.9398 345.102 27.9795 347.313 27.9795 350.148C27.9795 351.135 27.7004 352.058 27.2065 352.853L22.526 360.389H20.1428L23.3419 355.15C23.1487 355.172 22.9554 355.172 22.7622 355.172ZM22.7837 353.433C23.7713 353.433 24.5013 353.046 24.9736 352.595C25.5963 351.801 25.9827 350.942 25.9827 350.212C25.9827 348.516 24.8019 346.82 22.8051 346.82C20.9587 346.82 19.5202 348.172 19.5202 350.148C19.5202 352.101 20.8728 353.433 22.7837 353.433Z" fill="#262626"/>
  </g>

  
  <!-- cercle 88 --> 
   <g class="cercle_88">
     
     <path d="M190.731 222.522C190.731 209.297 180.01 198.574 166.784 198.574C153.558 198.574 142.836 209.297 142.836 222.522C142.836 235.748 153.558 246.47 166.784 246.47V247.709L166.134 247.7C152.74 247.361 141.945 236.566 141.605 223.172L141.598 222.522C141.598 208.612 152.874 197.336 166.784 197.336L167.434 197.344C181.043 197.688 191.971 208.83 191.971 222.522L191.962 223.172C191.617 236.782 180.477 247.709 166.784 247.709V246.47C180.01 246.47 190.731 235.748 190.731 222.522Z" fill="#262626"/>
     
<path d="M177.547 218.775C177.547 219.956 177.01 221.051 176.129 221.781C177.568 222.597 178.427 224.014 178.427 225.71C178.427 228.351 176.323 230.348 173.231 230.348C170.161 230.348 168.057 228.33 168.057 225.71C168.057 224.035 168.915 222.597 170.332 221.803C169.431 221.051 168.915 219.978 168.915 218.775C168.915 216.521 170.805 214.803 173.231 214.803C175.657 214.803 177.547 216.456 177.547 218.775ZM176.43 225.71C176.43 223.993 174.949 222.79 173.21 222.79C171.449 222.79 169.989 223.993 169.989 225.71C169.989 227.449 171.449 228.63 173.21 228.63C174.949 228.63 176.43 227.449 176.43 225.71ZM175.593 218.797C175.593 217.487 174.455 216.521 173.21 216.521C171.943 216.521 170.805 217.466 170.805 218.797C170.805 220.149 171.878 221.03 173.102 221.073H173.21H173.231H173.295C174.519 221.03 175.593 220.128 175.593 218.797Z" fill="#262626"/>
  
<path d="M165.03 218.775C165.03 219.956 164.493 221.051 163.613 221.781C165.051 222.597 165.91 224.014 165.91 225.71C165.91 228.351 163.806 230.348 160.714 230.348C157.644 230.348 155.54 228.33 155.54 225.71C155.54 224.035 156.399 222.597 157.816 221.803C156.914 221.051 156.399 219.978 156.399 218.775C156.399 216.521 158.288 214.803 160.714 214.803C163.141 214.803 165.03 216.456 165.03 218.775ZM163.913 225.71C163.913 223.993 162.432 222.79 160.693 222.79C158.932 222.79 157.472 223.993 157.472 225.71C157.472 227.449 158.932 228.63 160.693 228.63C162.432 228.63 163.913 227.449 163.913 225.71ZM163.076 218.797C163.076 217.487 161.938 216.521 160.693 216.521C159.426 216.521 158.288 217.466 158.288 218.797C158.288 220.149 159.362 221.03 160.586 221.073H160.693H160.714H160.779C162.003 221.03 163.076 220.128 163.076 218.797Z" fill="#262626"/>
  </g>
  
  
<path d="M436.818 438V0H490.661V188.751C504.575 174.837 537.244 148.823 585.641 148.823C646.139 148.823 684.857 183.306 684.857 242.594V438H631.014V253.483C631.014 217.185 610.445 197.221 575.962 197.221C547.528 197.221 516.07 212.95 490.661 240.174V438H436.818Z" fill="white"/>
  
  
<!-- cercle 89 --> 
  
   <g class="cercle_89">
<path d="M489.541 351.582C489.541 337.444 478.079 325.982 463.941 325.982C449.803 325.982 438.342 337.444 438.342 351.582C438.342 365.72 449.803 377.182 463.941 377.182V378.42L463.249 378.411C448.977 378.05 437.474 366.546 437.112 352.274L437.104 351.582C437.104 336.76 449.119 324.744 463.941 324.744L464.634 324.753C479.136 325.12 490.779 336.991 490.779 351.582L490.77 352.274C490.403 366.777 478.532 378.42 463.941 378.42V377.182C478.079 377.182 489.541 365.72 489.541 351.582Z" fill="#262626"/>
  
<path d="M469.998 353.625C466.798 353.625 464.759 351.435 464.759 348.601C464.759 345.767 466.798 343.555 469.998 343.555C473.175 343.555 475.215 345.767 475.215 348.601C475.215 349.588 474.936 350.512 474.442 351.306L469.761 358.842H467.378L470.577 353.603C470.384 353.625 470.191 353.625 469.998 353.625ZM470.019 351.886C471.007 351.886 471.737 351.499 472.209 351.048C472.832 350.254 473.218 349.395 473.218 348.665C473.218 346.969 472.037 345.273 470.04 345.273C468.194 345.273 466.756 346.625 466.756 348.601C466.756 350.554 468.108 351.886 470.019 351.886Z" fill="#262626"/>
  
<path d="M461.839 347.527C461.839 348.708 461.302 349.803 460.421 350.533C461.86 351.349 462.719 352.766 462.719 354.462C462.719 357.103 460.615 359.1 457.523 359.1C454.453 359.1 452.349 357.081 452.349 354.462C452.349 352.787 453.207 351.349 454.624 350.554C453.723 349.803 453.207 348.73 453.207 347.527C453.207 345.273 455.097 343.555 457.523 343.555C459.949 343.555 461.839 345.208 461.839 347.527ZM460.722 354.462C460.722 352.744 459.241 351.542 457.502 351.542C455.741 351.542 454.281 352.744 454.281 354.462C454.281 356.201 455.741 357.382 457.502 357.382C459.241 357.382 460.722 356.201 460.722 354.462ZM459.885 347.549C459.885 346.239 458.747 345.273 457.502 345.273C456.235 345.273 455.097 346.217 455.097 347.549C455.097 348.901 456.17 349.782 457.394 349.825H457.502H457.523H457.587C458.811 349.782 459.885 348.88 459.885 347.549Z" fill="#262626"/>
  
  </g>
  
</svg>