<svg width="814" height="577" viewBox="0 0 814 577" fill="none" xmlns="http://www.w3.org/2000/svg">
<path d="M420.209 437.999V248.038H186.085V437.999H129.822V14.519H186.085V197.221H420.209V14.519H476.471V437.999H420.209Z" fill="white"/>
<path d="M184.648 352.82C184.648 337.998 172.632 325.982 157.81 325.982C142.989 325.983 130.973 337.998 130.973 352.82C130.973 367.642 142.989 379.658 157.81 379.658V380.897L157.086 380.887C141.915 380.503 129.734 368.084 129.734 352.82C129.735 337.314 142.305 324.744 157.81 324.744C173.316 324.744 185.887 337.314 185.887 352.82L185.878 353.545C185.494 368.716 173.074 380.897 157.81 380.897V379.658C172.633 379.658 184.648 367.642 184.648 352.82Z" fill="#262626"/>
<path d="M159.847 347.249V345.359H168.285V346.454L163.991 351.028C166.954 351.199 168.972 353.024 168.972 355.601C168.972 358.435 166.868 360.646 163.669 360.646C161.436 360.646 159.632 359.551 158.838 357.919L160.641 357.039C161.114 358.113 162.252 358.929 163.626 358.929C165.472 358.929 166.975 357.576 166.975 355.601C166.975 353.754 165.558 352.724 163.647 352.724C162.939 352.724 162.402 352.874 161.93 353.218L160.942 351.8L165.086 347.249H159.847Z" fill="#262626"/>
<path d="M151.906 355.172C148.707 355.172 146.667 352.982 146.667 350.148C146.667 347.313 148.707 345.102 151.906 345.102C155.083 345.102 157.123 347.313 157.123 350.148C157.123 351.135 156.844 352.058 156.35 352.853L151.67 360.389H149.286L152.485 355.15C152.292 355.172 152.099 355.172 151.906 355.172ZM151.927 353.433C152.915 353.433 153.645 353.046 154.117 352.595C154.74 351.801 155.126 350.942 155.126 350.212C155.126 348.516 153.945 346.82 151.949 346.82C150.102 346.82 148.664 348.172 148.664 350.148C148.664 352.101 150.016 353.433 151.927 353.433Z" fill="#262626"/>
<path d="M319.875 222.522C319.875 209.297 309.154 198.574 295.928 198.574C282.702 198.574 271.979 209.297 271.979 222.522C271.98 235.748 282.702 246.47 295.928 246.47V247.709L295.277 247.7C281.884 247.361 271.088 236.566 270.749 223.172L270.741 222.522C270.741 208.612 282.018 197.336 295.928 197.336L296.577 197.344C310.187 197.688 321.114 208.83 321.114 222.522L321.105 223.172C320.761 236.782 309.62 247.709 295.928 247.709V246.47C309.153 246.47 319.875 235.748 319.875 222.522Z" fill="#262626"/>
<path d="M306.69 218.775C306.69 219.956 306.153 221.051 305.273 221.781C306.712 222.597 307.57 224.014 307.57 225.71C307.57 228.351 305.466 230.348 302.375 230.348C299.304 230.348 297.2 228.33 297.2 225.71C297.2 224.035 298.059 222.597 299.476 221.803C298.574 221.051 298.059 219.978 298.059 218.775C298.059 216.521 299.948 214.803 302.375 214.803C304.801 214.803 306.69 216.456 306.69 218.775ZM305.574 225.71C305.574 223.993 304.092 222.79 302.353 222.79C300.593 222.79 299.133 223.993 299.133 225.71C299.133 227.449 300.593 228.63 302.353 228.63C304.092 228.63 305.574 227.449 305.574 225.71ZM304.736 218.797C304.736 217.487 303.598 216.521 302.353 216.521C301.086 216.521 299.948 217.466 299.948 218.797C299.948 220.149 301.022 221.03 302.246 221.073H302.353H302.375H302.439C303.663 221.03 304.736 220.128 304.736 218.797Z" fill="#262626"/>
<path d="M294.173 218.775C294.173 219.956 293.637 221.051 292.756 221.781C294.195 222.597 295.054 224.014 295.054 225.71C295.054 228.351 292.95 230.348 289.858 230.348C286.788 230.348 284.684 228.33 284.684 225.71C284.684 224.035 285.542 222.597 286.959 221.803C286.058 221.051 285.542 219.978 285.542 218.775C285.542 216.521 287.432 214.803 289.858 214.803C292.284 214.803 294.173 216.456 294.173 218.775ZM293.057 225.71C293.057 223.993 291.576 222.79 289.836 222.79C288.076 222.79 286.616 223.993 286.616 225.71C286.616 227.449 288.076 228.63 289.836 228.63C291.576 228.63 293.057 227.449 293.057 225.71ZM292.22 218.797C292.22 217.487 291.082 216.521 289.836 216.521C288.57 216.521 287.432 217.466 287.432 218.797C287.432 220.149 288.505 221.03 289.729 221.073H289.836H289.858H289.922C291.146 221.03 292.22 220.128 292.22 218.797Z" fill="#262626"/>
<path d="M565.962 438V0H619.804V188.751C633.719 174.837 666.387 148.823 714.785 148.823C775.282 148.823 814 183.306 814 242.594V438H760.158V253.483C760.158 217.185 739.589 197.221 705.105 197.221C676.672 197.221 645.213 212.95 619.804 240.174V438H565.962Z" fill="white"/>
<path d="M618.685 351.582C618.685 337.444 607.223 325.982 593.085 325.982C578.947 325.982 567.485 337.444 567.485 351.582C567.485 365.72 578.947 377.182 593.085 377.182V378.42L592.393 378.411C578.12 378.05 566.617 366.546 566.256 352.274L566.247 351.582C566.247 336.76 578.263 324.744 593.085 324.744L593.777 324.753C608.279 325.12 619.923 336.991 619.923 351.582L619.914 352.274C619.547 366.777 607.676 378.42 593.085 378.42V377.182C607.223 377.182 618.685 365.72 618.685 351.582Z" fill="#262626"/>
<path d="M599.141 353.625C595.942 353.625 593.902 351.435 593.902 348.601C593.902 345.767 595.942 343.555 599.141 343.555C602.319 343.555 604.358 345.767 604.358 348.601C604.358 349.588 604.079 350.512 603.585 351.306L598.905 358.842H596.522L599.721 353.603C599.528 353.625 599.334 353.625 599.141 353.625ZM599.163 351.886C600.15 351.886 600.88 351.499 601.353 351.048C601.975 350.254 602.362 349.395 602.362 348.665C602.362 346.969 601.181 345.273 599.184 345.273C597.338 345.273 595.899 346.625 595.899 348.601C595.899 350.554 597.252 351.886 599.163 351.886Z" fill="#262626"/>
<path d="M590.982 347.527C590.982 348.708 590.445 349.803 589.565 350.533C591.004 351.349 591.862 352.766 591.862 354.462C591.862 357.103 589.758 359.1 586.667 359.1C583.596 359.1 581.492 357.081 581.492 354.462C581.492 352.787 582.351 351.349 583.768 350.554C582.866 349.803 582.351 348.73 582.351 347.527C582.351 345.273 584.24 343.555 586.667 343.555C589.093 343.555 590.982 345.208 590.982 347.527ZM589.866 354.462C589.866 352.744 588.384 351.542 586.645 351.542C584.884 351.542 583.425 352.744 583.425 354.462C583.425 356.201 584.884 357.382 586.645 357.382C588.384 357.382 589.866 356.201 589.866 354.462ZM589.028 347.549C589.028 346.239 587.89 345.273 586.645 345.273C585.378 345.273 584.24 346.217 584.24 347.549C584.24 348.901 585.314 349.782 586.538 349.825H586.645H586.667H586.731C587.955 349.782 589.028 348.88 589.028 347.549Z" fill="#262626"/>
</svg>
