<svg width="749" height="345" viewBox="0 0 749 345" fill="none" xmlns="http://www.w3.org/2000/svg">
<path d="M748.448 266V267H0.127808V266H748.448Z" fill="#AEAEAE"/>
<path d="M748.448 106.188V107.188H0.127808V106.188H748.448Z" fill="#AEAEAE"/>
<path d="M748.448 25V26H0.127808V25H748.448Z" fill="#AEAEAE"/>
<path d="M748.448 17.1885V18.1885H0.127808V17.1885H748.448Z" fill="#AEAEAE"/>
<path d="M748.448 344V345H0.127808V344H748.448Z" fill="#AEAEAE"/>
<path d="M733.738 186.759C733.738 231.523 704.125 271.122 654.196 271.122C633.191 271.122 613.908 260.447 601.168 245.985V344.122H570.521V106.528H596.347L601.168 127.877V127.532C613.908 113.07 633.191 102.395 654.196 102.395C704.125 102.395 733.738 141.995 733.738 186.759ZM650.064 129.943C629.059 129.943 612.531 141.65 601.168 154.391V219.127C612.531 231.867 629.059 243.575 650.064 243.575C682.432 243.575 701.715 219.127 701.715 186.759C701.715 154.391 682.432 129.943 650.064 129.943Z" fill="#262626"/>
<path d="M436.764 102.395C489.104 102.395 522.505 140.273 522.505 186.758C522.505 233.244 489.104 271.122 436.764 271.122C384.425 271.122 351.024 233.244 351.024 186.758C351.024 140.273 384.425 102.395 436.764 102.395ZM436.764 129.942C405.429 129.942 383.047 154.39 383.047 186.758C383.047 219.126 405.429 243.574 436.764 243.574C468.099 243.574 490.481 219.126 490.481 186.758C490.481 154.39 468.099 129.942 436.764 129.942ZM383.736 54.532C383.736 42.8245 393.033 33.5273 404.741 33.5273C416.792 33.5273 426.09 42.8245 426.09 54.532C426.09 66.2395 416.792 75.5367 404.741 75.5367C393.033 75.5367 383.736 66.2395 383.736 54.532ZM447.439 54.532C447.439 42.8245 456.736 33.5273 468.443 33.5273C480.495 33.5273 489.792 42.8245 489.792 54.532C489.792 66.2395 480.495 75.5367 468.443 75.5367C456.736 75.5367 447.439 66.2395 447.439 54.532Z" fill="#262626"/>
<path d="M272.587 266.99V17.6879H303.233V266.99H272.587Z" fill="#262626"/>
<path d="M180.328 266.99V158.867H47.0686V266.99H15.045V25.9521H47.0686V129.943H180.328V25.9521H212.352V266.99H180.328Z" fill="#262626"/>
</svg>
