<svg width="1233" height="345" viewBox="0 0 1233 345" fill="none" xmlns="http://www.w3.org/2000/svg">
<path d="M1232.38 266V267H1V266H1232.38Z" fill="#AEAEAE"/>
<path d="M1232.38 106.188V107.188H1V106.188H1232.38Z" fill="#AEAEAE"/>
<path d="M1232.38 25V26H1V25H1232.38Z" fill="#AEAEAE"/>
<path d="M1232.38 17.1885V18.1885H1V17.1885H1232.38Z" fill="#AEAEAE"/>
<path d="M1232.38 344V345H1V344H1232.38Z" fill="#AEAEAE"/>
<path d="M120.664 11.1722C121.384 11.1722 121.792 10.7642 122.008 10.4042L122.8 10.9202C122.5 11.4602 121.804 12.1442 120.676 12.1442C118.936 12.1442 117.904 10.8722 117.904 9.20416C117.904 7.51216 119.044 6.26416 120.556 6.26416C122.344 6.26416 123.16 7.65616 123.16 8.84416C123.16 8.97616 123.148 9.16816 123.136 9.30016C123.124 9.43216 123.1 9.54016 123.1 9.54016H118.948C118.948 10.4282 119.608 11.1722 120.664 11.1722ZM118.984 8.66416H122.164C122.164 7.80016 121.48 7.21216 120.556 7.21216C119.716 7.21216 118.984 7.93216 118.984 8.66416Z" fill="#AEAEAE"/>
<path d="M115.274 12.0002V8.34016C115.274 7.62016 114.866 7.22416 114.182 7.22416C113.618 7.22416 112.994 7.53616 112.49 8.07616V12.0002H111.422V6.40816H112.322L112.49 7.14016C112.658 6.93616 113.438 6.26416 114.374 6.26416C115.574 6.26416 116.342 6.94816 116.342 8.12416V12.0002H115.274Z" fill="#AEAEAE"/>
<path d="M108.317 12V6.408H109.385V12H108.317ZM108.113 4.344C108.113 3.936 108.437 3.612 108.845 3.612C109.265 3.612 109.589 3.936 109.589 4.344C109.589 4.752 109.265 5.076 108.845 5.076C108.437 5.076 108.113 4.752 108.113 4.344Z" fill="#AEAEAE"/>
<path d="M105.188 12V3.31201H106.256V12H105.188Z" fill="#AEAEAE"/>
<path d="M100.226 7.164L99.602 7.752C99.374 7.488 98.99 7.14 98.462 7.14C98.054 7.14 97.658 7.344 97.658 7.764C97.658 8.592 100.406 8.856 100.406 10.416C100.406 11.304 99.638 12.144 98.342 12.144C97.262 12.144 96.626 11.424 96.422 11.052L97.13 10.488C97.382 10.86 97.922 11.28 98.498 11.28C99.026 11.28 99.374 11.004 99.374 10.632C99.374 9.504 96.602 9.408 96.602 7.848C96.602 6.912 97.322 6.264 98.45 6.264C99.566 6.264 100.082 6.972 100.226 7.164Z" fill="#AEAEAE"/>
<path d="M92.6016 12.0002V6.40816H93.5016L93.6456 7.23616C93.9216 6.86416 94.5816 6.26416 95.5536 6.26416C95.6136 6.26416 95.7816 6.26416 95.7936 6.27616V7.38016C95.7456 7.36816 95.5416 7.33216 95.3856 7.33216C94.8096 7.33216 94.1616 7.62016 93.6696 8.14816V12.0002H92.6016Z" fill="#AEAEAE"/>
<path d="M88.4026 11.1722C89.1226 11.1722 89.5306 10.7642 89.7466 10.4042L90.5386 10.9202C90.2386 11.4602 89.5426 12.1442 88.4146 12.1442C86.6746 12.1442 85.6426 10.8722 85.6426 9.20416C85.6426 7.51216 86.7826 6.26416 88.2946 6.26416C90.0826 6.26416 90.8986 7.65616 90.8986 8.84416C90.8986 8.97616 90.8866 9.16816 90.8746 9.30016C90.8626 9.43216 90.8386 9.54016 90.8386 9.54016H86.6866C86.6866 10.4282 87.3466 11.1722 88.4026 11.1722ZM86.7226 8.66416H89.9026C89.9026 7.80016 89.2186 7.21216 88.2946 7.21216C87.4546 7.21216 86.7226 7.93216 86.7226 8.66416Z" fill="#AEAEAE"/>
<path d="M78.332 9.20401C78.332 7.64401 79.364 6.26401 81.104 6.26401C81.836 6.26401 82.508 6.63601 82.952 7.14001V3.31201H84.02V12H83.12L82.952 11.124C82.58 11.64 81.86 12.144 81.104 12.144C79.364 12.144 78.332 10.764 78.332 9.20401ZM81.248 11.184C81.98 11.184 82.556 10.632 82.952 10.188V8.07601C82.556 7.63201 81.98 7.22401 81.248 7.22401C80.12 7.22401 79.448 8.07601 79.448 9.20401C79.448 10.332 80.12 11.184 81.248 11.184Z" fill="#AEAEAE"/>
<path d="M75.6176 12.0002V8.34016C75.6176 7.62016 75.2096 7.22416 74.5256 7.22416C73.9616 7.22416 73.3376 7.53616 72.8336 8.07616V12.0002H71.7656V6.40816H72.6656L72.8336 7.14016C73.0016 6.93616 73.7816 6.26416 74.7176 6.26416C75.9176 6.26416 76.6856 6.94816 76.6856 8.12416V12.0002H75.6176Z" fill="#AEAEAE"/>
<path d="M67.5666 11.1722C68.2866 11.1722 68.6946 10.7642 68.9106 10.4042L69.7026 10.9202C69.4026 11.4602 68.7066 12.1442 67.5786 12.1442C65.8386 12.1442 64.8066 10.8722 64.8066 9.20416C64.8066 7.51216 65.9466 6.26416 67.4586 6.26416C69.2466 6.26416 70.0626 7.65616 70.0626 8.84416C70.0626 8.97616 70.0506 9.16816 70.0386 9.30016C70.0266 9.43216 70.0026 9.54016 70.0026 9.54016H65.8506C65.8506 10.4282 66.5106 11.1722 67.5666 11.1722ZM65.8866 8.66416H69.0666C69.0666 7.80016 68.3826 7.21216 67.4586 7.21216C66.6186 7.21216 65.8866 7.93216 65.8866 8.66416Z" fill="#AEAEAE"/>
<path d="M58.5742 9.20416C58.5742 7.58416 59.6782 6.26416 61.4902 6.26416C62.7502 6.26416 63.4822 7.06816 63.7582 7.63216L62.9422 8.14816C62.7142 7.75216 62.2822 7.22416 61.4902 7.22416C60.4102 7.22416 59.6902 8.07616 59.6902 9.20416C59.6902 10.3322 60.4102 11.1722 61.4902 11.1722C62.2822 11.1722 62.7142 10.6442 62.9422 10.2482L63.7582 10.7642C63.4822 11.3282 62.7502 12.1442 61.4902 12.1442C59.6782 12.1442 58.5742 10.8242 58.5742 9.20416Z" fill="#AEAEAE"/>
<path d="M57.2182 7.164L56.5942 7.752C56.3662 7.488 55.9822 7.14 55.4542 7.14C55.0462 7.14 54.6502 7.344 54.6502 7.764C54.6502 8.592 57.3982 8.856 57.3982 10.416C57.3982 11.304 56.6302 12.144 55.3342 12.144C54.2542 12.144 53.6182 11.424 53.4142 11.052L54.1222 10.488C54.3742 10.86 54.9142 11.28 55.4902 11.28C56.0182 11.28 56.3662 11.004 56.3662 10.632C56.3662 9.504 53.5942 9.408 53.5942 7.848C53.5942 6.912 54.3142 6.264 55.4422 6.264C56.5582 6.264 57.0742 6.972 57.2182 7.164Z" fill="#AEAEAE"/>
<path d="M49.1885 3.6L52.6085 12H51.3845L50.5085 9.84H46.3445L45.4685 12H44.2805L47.7965 3.6H49.1885ZM48.4445 4.704L46.7405 8.88H50.1245L48.4445 4.704Z" fill="#AEAEAE"/>
<path d="M37.4574 7.536V6.504H40.0494L39.9174 7.536H38.5974C38.5974 7.536 39.1734 8.136 39.1734 9C39.1734 9.54 39.0174 10.044 38.7534 10.488L40.1934 12H38.8254L38.1054 11.256C37.4694 11.808 36.6174 12.144 35.6814 12.144C34.1574 12.144 32.7414 11.136 32.7414 9.636C32.7414 8.4 33.5454 7.608 34.2414 7.116C34.0614 6.9 33.3894 6.132 33.3894 5.316C33.3894 4.272 34.1454 3.456 35.3214 3.456C36.1614 3.456 37.0614 3.912 37.2534 4.968L36.1734 5.208C36.0414 4.8 35.7534 4.536 35.3334 4.536C34.8894 4.536 34.5534 4.884 34.5534 5.256C34.5534 5.784 34.7814 6.24 37.9854 9.672C38.0814 9.456 38.1294 9.228 38.1294 8.988C38.1294 8.088 37.4574 7.536 37.4574 7.536ZM35.7174 11.088C36.3414 11.088 36.9294 10.86 37.3734 10.488L34.9374 7.92C34.3854 8.256 33.8574 8.784 33.8454 9.624C33.8334 10.44 34.6734 11.088 35.7174 11.088Z" fill="#AEAEAE"/>
<path d="M28.3314 7.164L27.7074 7.752C27.4794 7.488 27.0954 7.14 26.5674 7.14C26.1594 7.14 25.7634 7.344 25.7634 7.764C25.7634 8.592 28.5114 8.856 28.5114 10.416C28.5114 11.304 27.7434 12.144 26.4474 12.144C25.3674 12.144 24.7314 11.424 24.5274 11.052L25.2354 10.488C25.4874 10.86 26.0274 11.28 26.6034 11.28C27.1314 11.28 27.4794 11.004 27.4794 10.632C27.4794 9.504 24.7074 9.408 24.7074 7.848C24.7074 6.912 25.4274 6.264 26.5554 6.264C27.6714 6.264 28.1874 6.972 28.3314 7.164Z" fill="#AEAEAE"/>
<path d="M23.3364 9.20416C23.3364 10.7642 22.3044 12.1442 20.5644 12.1442C19.8324 12.1442 19.1604 11.7722 18.7164 11.2682V14.6882H17.6484V6.40816H18.5484L18.7164 7.15216V7.14016C19.1604 6.63616 19.8324 6.26416 20.5644 6.26416C22.3044 6.26416 23.3364 7.64416 23.3364 9.20416ZM20.4204 7.22416C19.6884 7.22416 19.1124 7.63216 18.7164 8.07616V10.3322C19.1124 10.7762 19.6884 11.1842 20.4204 11.1842C21.5484 11.1842 22.2204 10.3322 22.2204 9.20416C22.2204 8.07616 21.5484 7.22416 20.4204 7.22416Z" fill="#AEAEAE"/>
<path d="M9.91797 9.20416C9.91797 7.64416 10.95 6.26416 12.69 6.26416C13.422 6.26416 14.094 6.63616 14.538 7.14016V6.40816H15.606V12.0002H14.706L14.538 11.1242C14.166 11.6402 13.446 12.1442 12.69 12.1442C10.95 12.1442 9.91797 10.7642 9.91797 9.20416ZM12.834 11.1842C13.566 11.1842 14.142 10.6322 14.538 10.1882V8.07616C14.142 7.63216 13.566 7.22416 12.834 7.22416C11.706 7.22416 11.034 8.07616 11.034 9.20416C11.034 10.3322 11.706 11.1842 12.834 11.1842Z" fill="#AEAEAE"/>
<path d="M8.69973 5.43605L7.77573 5.92805C7.22373 4.96805 6.31173 4.44005 5.03973 4.44005C3.31173 4.44005 1.90773 5.85605 1.90773 7.80005C1.90773 9.55205 3.13173 11.1601 5.03973 11.1601C6.31173 11.1601 7.25973 10.5721 7.77573 9.66005L8.69973 10.1521C8.02773 11.3281 6.91173 12.1441 5.08773 12.1441C2.30373 12.1441 0.719727 9.98405 0.719727 7.80005C0.719727 5.42405 2.50773 3.45605 5.08773 3.45605C6.94773 3.45605 7.93173 4.24805 8.69973 5.43605Z" fill="#AEAEAE"/>
<path d="M46.2246 96.3678V95.4078H47.2206V93.8118L48.2766 93.0918V95.4078H49.5726V96.3678H48.2766V99.2718C48.2766 99.7278 48.5286 100.076 49.1526 100.076C49.3806 100.076 49.5726 100.028 49.5726 100.028V100.928C49.5006 100.964 49.1886 101.06 48.8886 101.06C47.9406 101.06 47.2206 100.52 47.2206 99.5958V96.3678H46.2246Z" fill="#AEAEAE"/>
<path d="M39.7773 101V92.312H40.8453V96.056C41.1213 95.78 41.7693 95.264 42.7293 95.264C43.9293 95.264 44.6973 95.948 44.6973 97.124V101H43.6293V97.34C43.6293 96.62 43.2213 96.224 42.5373 96.224C41.9733 96.224 41.3493 96.536 40.8453 97.076V101H39.7773Z" fill="#AEAEAE"/>
<path d="M37.7349 95.4082V101.228C37.7349 102.848 36.7389 103.832 35.0589 103.832C33.3069 103.832 32.6589 102.812 32.5149 102.44L33.4149 101.96C33.5949 102.308 34.0149 102.92 35.0589 102.92C36.0909 102.92 36.6669 102.188 36.6669 101.072V100.136C36.2229 100.64 35.5509 101.012 34.8189 101.012C33.0789 101.012 32.0469 99.7522 32.0469 98.1922C32.0469 96.6322 33.0789 95.2642 34.8189 95.2642C35.5509 95.2642 36.2229 95.6362 36.6669 96.1402L36.8349 95.4082H37.7349ZM33.1629 98.1922C33.1629 99.3202 33.8349 100.052 34.9629 100.052C35.6949 100.052 36.2709 99.6442 36.6669 99.2002V97.0762C36.2709 96.6322 35.6949 96.2242 34.9629 96.2242C33.8349 96.2242 33.1629 97.0642 33.1629 98.1922Z" fill="#AEAEAE"/>
<path d="M29.2784 101V95.408H30.3464V101H29.2784ZM29.0744 93.344C29.0744 92.936 29.3984 92.612 29.8064 92.612C30.2264 92.612 30.5504 92.936 30.5504 93.344C30.5504 93.752 30.2264 94.076 29.8064 94.076C29.3984 94.076 29.0744 93.752 29.0744 93.344Z" fill="#AEAEAE"/>
<path d="M25.0549 100.172C25.7749 100.172 26.1829 99.7642 26.3989 99.4042L27.1909 99.9202C26.8909 100.46 26.1949 101.144 25.0669 101.144C23.3269 101.144 22.2949 99.8722 22.2949 98.2042C22.2949 96.5122 23.4349 95.2642 24.9469 95.2642C26.7349 95.2642 27.5509 96.6562 27.5509 97.8442C27.5509 97.9762 27.5389 98.1682 27.5269 98.3002C27.5149 98.4322 27.4909 98.5402 27.4909 98.5402H23.3389C23.3389 99.4282 23.9989 100.172 25.0549 100.172ZM23.3749 97.6642H26.5549C26.5549 96.8002 25.8709 96.2122 24.9469 96.2122C24.1069 96.2122 23.3749 96.9322 23.3749 97.6642Z" fill="#AEAEAE"/>
<path d="M19.5002 101V97.232H14.8562V101H13.7402V92.6H14.8562V96.224H19.5002V92.6H20.6162V101H19.5002Z" fill="#AEAEAE"/>
<path d="M8.10062 98.42V97.46H11.7006V98.42H8.10062Z" fill="#AEAEAE"/>
<path d="M5.68 101L4.096 98.936L2.476 101H1.24L3.484 98.144L1.384 95.408H2.716L4.156 97.292L5.644 95.408H6.868L4.768 98.084L7.012 101H5.68Z" fill="#AEAEAE"/>
<path d="M43.3674 260.172C44.0874 260.172 44.4954 259.764 44.7114 259.404L45.5034 259.92C45.2034 260.46 44.5074 261.144 43.3794 261.144C41.6394 261.144 40.6074 259.872 40.6074 258.204C40.6074 256.512 41.7474 255.264 43.2594 255.264C45.0474 255.264 45.8634 256.656 45.8634 257.844C45.8634 257.976 45.8514 258.168 45.8394 258.3C45.8274 258.432 45.8034 258.54 45.8034 258.54H41.6514C41.6514 259.428 42.3114 260.172 43.3674 260.172ZM41.6874 257.664H44.8674C44.8674 256.8 44.1834 256.212 43.2594 256.212C42.4194 256.212 41.6874 256.932 41.6874 257.664Z" fill="#AEAEAE"/>
<path d="M37.977 261V257.34C37.977 256.62 37.569 256.224 36.885 256.224C36.321 256.224 35.697 256.536 35.193 257.076V261H34.125V255.408H35.025L35.193 256.14C35.361 255.936 36.141 255.264 37.077 255.264C38.277 255.264 39.045 255.948 39.045 257.124V261H37.977Z" fill="#AEAEAE"/>
<path d="M31.0206 261V255.408H32.0886V261H31.0206ZM30.8166 253.344C30.8166 252.936 31.1406 252.612 31.5486 252.612C31.9686 252.612 32.2926 252.936 32.2926 253.344C32.2926 253.752 31.9686 254.076 31.5486 254.076C31.1406 254.076 30.8166 253.752 30.8166 253.344Z" fill="#AEAEAE"/>
<path d="M27.8906 261V252.312H28.9586V261H27.8906Z" fill="#AEAEAE"/>
<path d="M23.6916 260.172C24.4116 260.172 24.8196 259.764 25.0356 259.404L25.8276 259.92C25.5276 260.46 24.8316 261.144 23.7036 261.144C21.9636 261.144 20.9316 259.872 20.9316 258.204C20.9316 256.512 22.0716 255.264 23.5836 255.264C25.3716 255.264 26.1876 256.656 26.1876 257.844C26.1876 257.976 26.1756 258.168 26.1636 258.3C26.1516 258.432 26.1276 258.54 26.1276 258.54H21.9756C21.9756 259.428 22.6356 260.172 23.6916 260.172ZM22.0116 257.664H25.1916C25.1916 256.8 24.5076 256.212 23.5836 256.212C22.7436 256.212 22.0116 256.932 22.0116 257.664Z" fill="#AEAEAE"/>
<path d="M19.6244 256.164L19.0004 256.752C18.7724 256.488 18.3884 256.14 17.8604 256.14C17.4524 256.14 17.0564 256.344 17.0564 256.764C17.0564 257.592 19.8044 257.856 19.8044 259.416C19.8044 260.304 19.0364 261.144 17.7404 261.144C16.6604 261.144 16.0244 260.424 15.8204 260.052L16.5284 259.488C16.7804 259.86 17.3204 260.28 17.8964 260.28C18.4244 260.28 18.7724 260.004 18.7724 259.632C18.7724 258.504 16.0004 258.408 16.0004 256.848C16.0004 255.912 16.7204 255.264 17.8484 255.264C18.9644 255.264 19.4804 255.972 19.6244 256.164Z" fill="#AEAEAE"/>
<path d="M8.60547 258.204C8.60547 256.644 9.63747 255.264 11.3775 255.264C12.1095 255.264 12.7815 255.636 13.2255 256.14V255.408H14.2935V261H13.3935L13.2255 260.124C12.8535 260.64 12.1335 261.144 11.3775 261.144C9.63747 261.144 8.60547 259.764 8.60547 258.204ZM11.5215 260.184C12.2535 260.184 12.8295 259.632 13.2255 259.188V257.076C12.8295 256.632 12.2535 256.224 11.5215 256.224C10.3935 256.224 9.72147 257.076 9.72147 258.204C9.72147 259.332 10.3935 260.184 11.5215 260.184Z" fill="#AEAEAE"/>
<path d="M1.08 252.6H4.608C6.24 252.6 7.128 253.548 7.128 254.796C7.128 255.648 6.672 256.38 5.736 256.704C6.684 256.98 7.32 257.688 7.32 258.684C7.32 260.016 6.492 261 4.8 261H1.08V252.6ZM6.156 258.648C6.156 257.928 5.736 257.22 4.68 257.22H2.196V259.992H4.68C5.736 259.992 6.156 259.32 6.156 258.648ZM5.964 254.904C5.964 254.22 5.544 253.608 4.488 253.608H2.196V256.212H4.488C5.544 256.212 5.964 255.6 5.964 254.904Z" fill="#AEAEAE"/>
<path d="M83.551 338.172C84.271 338.172 84.679 337.764 84.895 337.404L85.687 337.92C85.387 338.46 84.691 339.144 83.563 339.144C81.823 339.144 80.791 337.872 80.791 336.204C80.791 334.512 81.931 333.264 83.443 333.264C85.231 333.264 86.047 334.656 86.047 335.844C86.047 335.976 86.035 336.168 86.023 336.3C86.011 336.432 85.987 336.54 85.987 336.54H81.835C81.835 337.428 82.495 338.172 83.551 338.172ZM81.871 335.664H85.051C85.051 334.8 84.367 334.212 83.443 334.212C82.603 334.212 81.871 334.932 81.871 335.664Z" fill="#AEAEAE"/>
<path d="M78.1606 339V335.34C78.1606 334.62 77.7526 334.224 77.0686 334.224C76.5046 334.224 75.8806 334.536 75.3766 335.076V339H74.3086V333.408H75.2086L75.3766 334.14C75.5446 333.936 76.3246 333.264 77.2606 333.264C78.4606 333.264 79.2286 333.948 79.2286 335.124V339H78.1606Z" fill="#AEAEAE"/>
<path d="M71.2042 339V333.408H72.2722V339H71.2042ZM71.0002 331.344C71.0002 330.936 71.3242 330.612 71.7322 330.612C72.1522 330.612 72.4762 330.936 72.4762 331.344C72.4762 331.752 72.1522 332.076 71.7322 332.076C71.3242 332.076 71.0002 331.752 71.0002 331.344Z" fill="#AEAEAE"/>
<path d="M68.0742 339V330.312H69.1422V339H68.0742Z" fill="#AEAEAE"/>
<path d="M63.1127 334.164L62.4887 334.752C62.2607 334.488 61.8767 334.14 61.3487 334.14C60.9407 334.14 60.5447 334.344 60.5447 334.764C60.5447 335.592 63.2927 335.856 63.2927 337.416C63.2927 338.304 62.5247 339.144 61.2287 339.144C60.1487 339.144 59.5127 338.424 59.3087 338.052L60.0167 337.488C60.2687 337.86 60.8087 338.28 61.3847 338.28C61.9127 338.28 62.2607 338.004 62.2607 337.632C62.2607 336.504 59.4887 336.408 59.4887 334.848C59.4887 333.912 60.2087 333.264 61.3367 333.264C62.4527 333.264 62.9687 333.972 63.1127 334.164Z" fill="#AEAEAE"/>
<path d="M55.4883 339V333.408H56.3883L56.5323 334.236C56.8083 333.864 57.4683 333.264 58.4403 333.264C58.5003 333.264 58.6683 333.264 58.6803 333.276V334.38C58.6323 334.368 58.4283 334.332 58.2723 334.332C57.6963 334.332 57.0483 334.62 56.5563 335.148V339H55.4883Z" fill="#AEAEAE"/>
<path d="M51.2893 338.172C52.0093 338.172 52.4173 337.764 52.6333 337.404L53.4253 337.92C53.1253 338.46 52.4293 339.144 51.3013 339.144C49.5613 339.144 48.5293 337.872 48.5293 336.204C48.5293 334.512 49.6693 333.264 51.1813 333.264C52.9693 333.264 53.7853 334.656 53.7853 335.844C53.7853 335.976 53.7733 336.168 53.7613 336.3C53.7493 336.432 53.7253 336.54 53.7253 336.54H49.5733C49.5733 337.428 50.2333 338.172 51.2893 338.172ZM49.6093 335.664H52.7893C52.7893 334.8 52.1053 334.212 51.1813 334.212C50.3413 334.212 49.6093 334.932 49.6093 335.664Z" fill="#AEAEAE"/>
<path d="M41.2188 336.204C41.2188 334.644 42.2507 333.264 43.9907 333.264C44.7227 333.264 45.3947 333.636 45.8387 334.14V330.312H46.9067V339H46.0067L45.8387 338.124C45.4667 338.64 44.7467 339.144 43.9907 339.144C42.2507 339.144 41.2188 337.764 41.2188 336.204ZM44.1347 338.184C44.8667 338.184 45.4427 337.632 45.8387 337.188V335.076C45.4427 334.632 44.8667 334.224 44.1347 334.224C43.0067 334.224 42.3347 335.076 42.3347 336.204C42.3347 337.332 43.0067 338.184 44.1347 338.184Z" fill="#AEAEAE"/>
<path d="M38.5043 339V335.34C38.5043 334.62 38.0963 334.224 37.4123 334.224C36.8483 334.224 36.2243 334.536 35.7203 335.076V339H34.6523V333.408H35.5523L35.7203 334.14C35.8883 333.936 36.6683 333.264 37.6043 333.264C38.8043 333.264 39.5723 333.948 39.5723 335.124V339H38.5043Z" fill="#AEAEAE"/>
<path d="M30.4534 338.172C31.1734 338.172 31.5814 337.764 31.7974 337.404L32.5894 337.92C32.2894 338.46 31.5934 339.144 30.4654 339.144C28.7254 339.144 27.6934 337.872 27.6934 336.204C27.6934 334.512 28.8334 333.264 30.3454 333.264C32.1334 333.264 32.9494 334.656 32.9494 335.844C32.9494 335.976 32.9374 336.168 32.9254 336.3C32.9134 336.432 32.8894 336.54 32.8894 336.54H28.7374C28.7374 337.428 29.3974 338.172 30.4534 338.172ZM28.7734 335.664H31.9534C31.9534 334.8 31.2694 334.212 30.3454 334.212C29.5054 334.212 28.7734 334.932 28.7734 335.664Z" fill="#AEAEAE"/>
<path d="M21.4609 336.204C21.4609 334.584 22.5649 333.264 24.3769 333.264C25.6369 333.264 26.3689 334.068 26.6449 334.632L25.8289 335.148C25.6009 334.752 25.1689 334.224 24.3769 334.224C23.2969 334.224 22.5769 335.076 22.5769 336.204C22.5769 337.332 23.2969 338.172 24.3769 338.172C25.1689 338.172 25.6009 337.644 25.8289 337.248L26.6449 337.764C26.3689 338.328 25.6369 339.144 24.3769 339.144C22.5649 339.144 21.4609 337.824 21.4609 336.204Z" fill="#AEAEAE"/>
<path d="M20.1049 334.164L19.4809 334.752C19.2529 334.488 18.8689 334.14 18.3409 334.14C17.9329 334.14 17.5369 334.344 17.5369 334.764C17.5369 335.592 20.2849 335.856 20.2849 337.416C20.2849 338.304 19.5169 339.144 18.2209 339.144C17.1409 339.144 16.5049 338.424 16.3009 338.052L17.0089 337.488C17.2609 337.86 17.8009 338.28 18.3769 338.28C18.9049 338.28 19.2529 338.004 19.2529 337.632C19.2529 336.504 16.4809 336.408 16.4809 334.848C16.4809 333.912 17.2009 333.264 18.3289 333.264C19.4449 333.264 19.9609 333.972 20.1049 334.164Z" fill="#AEAEAE"/>
<path d="M12.6174 338.172C13.3374 338.172 13.7454 337.764 13.9614 337.404L14.7534 337.92C14.4534 338.46 13.7574 339.144 12.6294 339.144C10.8894 339.144 9.85742 337.872 9.85742 336.204C9.85742 334.512 10.9974 333.264 12.5094 333.264C14.2974 333.264 15.1134 334.656 15.1134 335.844C15.1134 335.976 15.1014 336.168 15.0894 336.3C15.0774 336.432 15.0534 336.54 15.0534 336.54H10.9014C10.9014 337.428 11.5614 338.172 12.6174 338.172ZM10.9374 335.664H14.1174C14.1174 334.8 13.4334 334.212 12.5094 334.212C11.6694 334.212 10.9374 334.932 10.9374 335.664Z" fill="#AEAEAE"/>
<path d="M1.08 339V330.6H4.116C6.816 330.6 8.532 332.4 8.532 334.8C8.532 337.2 6.816 339 4.116 339H1.08ZM4.116 331.536H2.196V338.064H4.116C6.012 338.064 7.368 336.768 7.368 334.8C7.368 332.832 6.012 331.536 4.116 331.536Z" fill="#AEAEAE"/>
<path d="M1012.08 61.4294L1060.97 77.9577V25.9624H1089.9V77.9577L1139.48 61.4294L1148.78 88.6322L1098.5 105.505L1130.53 148.203L1107.8 165.42L1075.43 122.378L1043.07 165.42L1020.34 148.203L1052.02 105.505L1002.78 88.6322L1012.08 61.4294Z" fill="#262626"/>
<path d="M984.543 186.769C984.543 231.533 954.93 271.132 905.001 271.132C883.996 271.132 864.713 260.458 851.972 245.995V344.132H821.326V106.538H847.152L851.972 127.887V127.542C864.713 113.08 883.996 102.406 905.001 102.406C954.93 102.406 984.543 142.005 984.543 186.769ZM900.869 129.953C879.864 129.953 863.336 141.66 851.972 154.401V219.137C863.336 231.877 879.864 243.585 900.869 243.585C933.237 243.585 952.52 219.137 952.52 186.769C952.52 154.401 933.237 129.953 900.869 129.953Z" fill="#262626"/>
<path d="M687.569 102.406C739.909 102.406 773.31 140.283 773.31 186.769C773.31 233.255 739.909 271.132 687.569 271.132C635.229 271.132 601.828 233.255 601.828 186.769C601.828 140.283 635.229 102.406 687.569 102.406ZM687.569 129.953C656.234 129.953 633.852 154.401 633.852 186.769C633.852 219.137 656.234 243.585 687.569 243.585C718.904 243.585 741.286 219.137 741.286 186.769C741.286 154.401 718.904 129.953 687.569 129.953ZM634.541 54.5425C634.541 42.8349 643.838 33.5378 655.546 33.5378C667.597 33.5378 676.895 42.8349 676.895 54.5425C676.895 66.25 667.597 75.5472 655.546 75.5472C643.838 75.5472 634.541 66.25 634.541 54.5425ZM698.244 54.5425C698.244 42.8349 707.541 33.5378 719.248 33.5378C731.3 33.5378 740.597 42.8349 740.597 54.5425C740.597 66.25 731.3 75.5472 719.248 75.5472C707.541 75.5472 698.244 66.25 698.244 54.5425Z" fill="#262626"/>
<path d="M467.937 134.085V106.538H496.517V60.7406L526.819 40.0802V106.538H564.008V134.085H526.819V217.415C526.819 230.5 534.05 240.486 551.956 240.486C558.498 240.486 564.008 239.108 564.008 239.108V264.934C561.942 265.967 552.989 268.722 544.38 268.722C517.177 268.722 496.517 253.226 496.517 226.712V134.085H467.937Z" fill="#262626"/>
<path d="M391.91 267V17.6981H422.557V267H391.91Z" fill="#262626"/>
<path d="M299.652 267V158.877H166.392V267H134.369V25.9623H166.392V129.953H299.652V25.9623H331.675V267H299.652Z" fill="#262626"/>
</svg>
