<svg width="814" height="575" viewBox="0 0 814 575" fill="none" xmlns="http://www.w3.org/2000/svg">
<path d="M449.539 223.742C449.539 103.312 363.768 5.6756 228.672 4.91455L227.08 4.90967C91.0658 4.90967 4.62109 102.84 4.62109 223.742L4.625 225.158C5.29471 344.935 90.9216 441.811 225.488 442.569L227.08 442.574H446.517V397.236H367.931C419.512 357.65 449.074 295.45 449.533 225.398L449.539 223.742ZM388.454 223.742C388.454 125.226 321.849 54.5093 227.08 54.5093C132.311 54.5093 65.7061 125.226 65.7061 223.742C65.7061 322.257 132.311 392.974 227.08 392.974V394.212L224.847 394.2C131.266 393.105 65.5093 323.22 64.4795 226.06L64.4678 223.742C64.4678 124.602 131.568 53.27 227.08 53.27L229.313 53.2837C323.637 54.387 389.692 125.377 389.692 223.742L389.681 226.06C388.643 323.991 321.846 394.212 227.08 394.212V392.974C321.849 392.974 388.454 322.257 388.454 223.742ZM450.777 223.742C450.777 293.523 422.079 355.755 371.524 395.997H447.755V443.812H227.08C90.3526 443.812 3.38289 345.298 3.38281 223.742C3.38281 102.186 90.3525 3.67139 227.08 3.67139C363.808 3.67141 450.777 102.186 450.777 223.742Z" fill="#262626"/>
<path d="M366.02 392.272H372.626V398.879H366.02V392.272Z" fill="#262626"/>
<path d="M442.933 392.272H449.539V398.879H442.933V392.272Z" fill="#262626"/>
<path d="M442.933 440.332H449.539V446.938H442.933V440.332Z" fill="#262626"/>
<path d="M223.76 2.90215C223.76 1.53395 224.869 0.424805 226.237 0.424805H228.714C230.083 0.424805 231.192 1.53395 231.192 2.90215V5.37949C231.192 6.74769 230.083 7.85683 228.714 7.85683H226.237C224.869 7.85683 223.76 6.74769 223.76 5.37949V2.90215Z" fill="#262626"/>
<path d="M92.666 3.72852C92.666 2.70237 91.8338 1.87012 90.8076 1.87012H89.9824C88.9563 1.87012 88.124 2.70237 88.124 3.72852V4.55371C88.124 5.57986 88.9563 6.41211 89.9824 6.41211H90.8076C91.8338 6.41211 92.666 5.57986 92.666 4.55371V3.72852ZM93.9043 4.55371C93.9043 6.26396 92.5179 7.65039 90.8076 7.65039H89.9824C88.2722 7.65039 86.8857 6.26396 86.8857 4.55371V3.72852C86.8857 2.01827 88.2722 0.631836 89.9824 0.631836H90.8076C92.5179 0.631836 93.9043 2.01827 93.9043 3.72852V4.55371Z" fill="#262626"/>
<path d="M366.825 3.72852C366.825 2.70237 365.993 1.87012 364.967 1.87012H364.142C363.115 1.87012 362.283 2.70237 362.283 3.72852V4.55371C362.283 5.57986 363.115 6.41211 364.142 6.41211H364.967C365.993 6.41211 366.825 5.57986 366.825 4.55371V3.72852ZM368.063 4.55371C368.063 6.26396 366.677 7.65039 364.967 7.65039H364.142C362.431 7.65039 361.045 6.26396 361.045 4.55371V3.72852C361.045 2.01827 362.431 0.631836 364.142 0.631836H364.967C366.677 0.631836 368.063 2.01827 368.063 3.72852V4.55371Z" fill="#262626"/>
<path d="M364.556 3.52248L364.556 4.76077L90.3965 4.76074L90.3965 3.52246L364.556 3.52248Z" fill="#262626"/>
<path d="M230.402 444.427C230.402 445.796 229.293 446.905 227.925 446.905L225.448 446.905C224.079 446.905 222.97 445.796 222.97 444.427L222.97 441.95C222.97 440.582 224.079 439.473 225.448 439.473L227.925 439.473C229.293 439.473 230.402 440.582 230.402 441.95L230.402 444.427Z" fill="#262626"/>
<path d="M87.3359 443.601C87.3359 444.627 88.1682 445.459 89.1943 445.459L90.0195 445.459C91.0457 445.459 91.8779 444.627 91.8779 443.601L91.8779 442.776C91.8779 441.75 91.0457 440.917 90.0195 440.917L89.1943 440.917C88.1682 440.917 87.3359 441.75 87.3359 442.776L87.3359 443.601ZM86.0977 442.776C86.0977 441.066 87.4841 439.679 89.1943 439.679L90.0195 439.679C91.7298 439.679 93.1162 441.066 93.1162 442.776L93.1162 443.601C93.1162 445.311 91.7298 446.698 90.0195 446.698L89.1943 446.698C87.4841 446.698 86.0977 445.311 86.0977 443.601L86.0977 442.776Z" fill="#262626"/>
<path d="M89.6074 443.807V442.569H227.082V443.807H89.6074Z" fill="#262626"/>
<path d="M2.47734 227.062C1.10914 227.062 -4.84822e-08 225.953 -1.08288e-07 224.585L-2.16576e-07 222.107C-2.76382e-07 220.739 1.10914 219.63 2.47734 219.63L4.95468 219.63C6.32288 219.63 7.43203 220.739 7.43203 222.107L7.43203 224.585C7.43203 225.953 6.32288 227.062 4.95468 227.062L2.47734 227.062Z" fill="#262626"/>
<path d="M3.30273 341.639C2.27659 341.639 1.44434 342.471 1.44434 343.498L1.44434 344.323C1.44434 345.349 2.27659 346.181 3.30273 346.181L4.12793 346.181C5.15408 346.181 5.98633 345.349 5.98633 344.323L5.98633 343.498C5.98633 342.471 5.15408 341.639 4.12793 341.639L3.30273 341.639ZM4.12793 340.401C5.83818 340.401 7.22461 341.787 7.22461 343.498L7.22461 344.323C7.22461 346.033 5.83818 347.419 4.12793 347.419L3.30273 347.419C1.59249 347.419 0.206055 346.033 0.206055 344.323L0.206055 343.498C0.206054 341.787 1.59249 340.401 3.30273 340.401L4.12793 340.401Z" fill="#262626"/>
<path d="M3.30273 100.512C2.27659 100.512 1.44434 101.344 1.44434 102.37L1.44434 103.195C1.44434 104.221 2.27659 105.054 3.30273 105.054L4.12793 105.054C5.15408 105.054 5.98633 104.221 5.98633 103.195L5.98633 102.37C5.98633 101.344 5.15408 100.512 4.12793 100.512L3.30273 100.512ZM4.12793 99.2734C5.83818 99.2734 7.22461 100.66 7.22461 102.37L7.22461 103.195C7.22461 104.906 5.83818 106.292 4.12793 106.292L3.30273 106.292C1.59249 106.292 0.206055 104.906 0.206055 103.195L0.206055 102.37C0.206054 100.66 1.59249 99.2734 3.30273 99.2734L4.12793 99.2734Z" fill="#262626"/>
<path d="M3.09669 102.782L4.33497 102.782L4.33496 343.91L3.09668 343.91L3.09669 102.782Z" fill="#262626"/>
<path d="M451.702 220.421C453.071 220.421 454.18 221.53 454.18 222.898L454.18 225.376C454.18 226.744 453.071 227.853 451.702 227.853L449.225 227.853C447.857 227.853 446.748 226.744 446.748 225.376L446.748 222.898C446.748 221.53 447.857 220.421 449.225 220.421L451.702 220.421Z" fill="#262626"/>
<path d="M450.877 105.844C451.903 105.844 452.735 105.012 452.735 103.986L452.735 103.161C452.735 102.134 451.903 101.302 450.877 101.302L450.052 101.302C449.026 101.302 448.193 102.134 448.193 103.161L448.193 103.986C448.193 105.012 449.026 105.844 450.052 105.844L450.877 105.844ZM450.052 107.083C448.342 107.083 446.955 105.696 446.955 103.986L446.955 103.161C446.955 101.45 448.342 100.064 450.052 100.064L450.877 100.064C452.587 100.064 453.974 101.45 453.974 103.161L453.974 103.986C453.974 105.696 452.587 107.083 450.877 107.083L450.052 107.083Z" fill="#262626"/>
<path d="M451.083 295.071L449.845 295.071L449.845 103.573L451.083 103.573L451.083 295.071Z" fill="#262626"/>
<path d="M450.876 297.384C451.902 297.384 452.734 296.552 452.734 295.526L452.734 294.701C452.734 293.675 451.902 292.842 450.876 292.842L450.051 292.842C449.025 292.842 448.192 293.675 448.192 294.701L448.192 295.526C448.192 296.552 449.025 297.384 450.051 297.384L450.876 297.384ZM450.051 298.623C448.341 298.623 446.954 297.236 446.954 295.526L446.954 294.701C446.954 292.99 448.341 291.604 450.051 291.604L450.876 291.604C452.586 291.604 453.973 292.99 453.973 294.701L453.973 295.526C453.973 297.236 452.586 298.623 450.876 298.623L450.051 298.623Z" fill="#262626"/>
<path d="M223.742 52.449C223.742 51.0808 224.851 49.9717 226.22 49.9717H228.697C230.065 49.9717 231.174 51.0808 231.174 52.449V54.9264C231.174 56.2946 230.065 57.4037 228.697 57.4037H226.22C224.851 57.4037 223.742 56.2946 223.742 54.9264V52.449Z" fill="#262626"/>
<path d="M133.938 53.2754C133.938 52.2492 133.106 51.417 132.08 51.417H131.255C130.229 51.417 129.396 52.2492 129.396 53.2754V54.1006C129.396 55.1267 130.229 55.959 131.255 55.959H132.08C133.106 55.959 133.938 55.1267 133.938 54.1006V53.2754ZM135.177 54.1006C135.177 55.8108 133.79 57.1973 132.08 57.1973H131.255C129.545 57.1973 128.158 55.8108 128.158 54.1006V53.2754C128.158 51.5651 129.545 50.1787 131.255 50.1787H132.08C133.79 50.1787 135.177 51.5651 135.177 53.2754V54.1006Z" fill="#262626"/>
<path d="M325.52 53.2754C325.52 52.2492 324.687 51.417 323.661 51.417H322.836C321.81 51.417 320.978 52.2492 320.978 53.2754V54.1006C320.978 55.1267 321.81 55.959 322.836 55.959H323.661C324.687 55.959 325.52 55.1267 325.52 54.1006V53.2754ZM326.758 54.1006C326.758 55.8108 325.371 57.1973 323.661 57.1973H322.836C321.126 57.1973 319.739 55.8108 319.739 54.1006V53.2754C319.739 51.5651 321.126 50.1787 322.836 50.1787H323.661C325.371 50.1787 326.758 51.5651 326.758 53.2754V54.1006Z" fill="#262626"/>
<path d="M323.249 53.0688V54.3071H131.668V53.0688H323.249Z" fill="#262626"/>
<path d="M230.419 395.149C230.419 396.517 229.31 397.626 227.942 397.626L225.464 397.626C224.096 397.626 222.987 396.517 222.987 395.149L222.987 392.672C222.987 391.304 224.096 390.194 225.464 390.194L227.942 390.194C229.31 390.194 230.419 391.304 230.419 392.672L230.419 395.149Z" fill="#262626"/>
<path d="M320.223 394.323C320.223 395.349 321.055 396.181 322.081 396.181L322.906 396.181C323.932 396.181 324.765 395.349 324.765 394.323L324.765 393.498C324.765 392.471 323.932 391.639 322.906 391.639L322.081 391.639C321.055 391.639 320.223 392.471 320.223 393.498L320.223 394.323ZM318.984 393.498C318.984 391.787 320.371 390.401 322.081 390.401L322.906 390.401C324.616 390.401 326.003 391.787 326.003 393.498L326.003 394.323C326.003 396.033 324.616 397.419 322.906 397.419L322.081 397.419C320.371 397.419 318.984 396.033 318.984 394.323L318.984 393.498Z" fill="#262626"/>
<path d="M128.642 394.323C128.642 395.349 129.474 396.181 130.5 396.181L131.325 396.181C132.351 396.181 133.184 395.349 133.184 394.323L133.184 393.498C133.184 392.471 132.351 391.639 131.325 391.639L130.5 391.639C129.474 391.639 128.642 392.471 128.642 393.498L128.642 394.323ZM127.403 393.498C127.403 391.787 128.79 390.401 130.5 390.401L131.325 390.401C133.035 390.401 134.422 391.787 134.422 393.498L134.422 394.323C134.422 396.033 133.035 397.419 131.325 397.419L130.5 397.419C128.79 397.419 127.403 396.033 127.403 394.323L127.403 393.498Z" fill="#262626"/>
<path d="M130.912 394.529L130.912 393.291L322.493 393.291L322.493 394.529L130.912 394.529Z" fill="#262626"/>
<path d="M63.5848 227.08C62.2166 227.08 61.1074 225.97 61.1074 224.602L61.1074 222.125C61.1074 220.757 62.2166 219.648 63.5848 219.648L66.0621 219.648C67.4303 219.648 68.5394 220.757 68.5394 222.125L68.5394 224.602C68.5394 225.97 67.4303 227.08 66.0621 227.08L63.5848 227.08Z" fill="#262626"/>
<path d="M64.4102 316.883C63.384 316.883 62.5518 317.716 62.5518 318.742L62.5518 319.567C62.5518 320.593 63.384 321.425 64.4102 321.425L65.2354 321.425C66.2615 321.425 67.0937 320.593 67.0937 319.567L67.0937 318.742C67.0937 317.716 66.2615 316.883 65.2354 316.883L64.4102 316.883ZM65.2354 315.645C66.9456 315.645 68.332 317.031 68.332 318.742L68.332 319.567C68.332 321.277 66.9456 322.664 65.2354 322.664L64.4102 322.664C62.6999 322.664 61.3135 321.277 61.3135 319.567L61.3135 318.742C61.3135 317.031 62.6999 315.645 64.4102 315.645L65.2354 315.645Z" fill="#262626"/>
<path d="M64.4102 125.303C63.384 125.303 62.5518 126.135 62.5518 127.161L62.5518 127.986C62.5518 129.012 63.384 129.845 64.4102 129.845L65.2354 129.845C66.2615 129.845 67.0937 129.012 67.0937 127.986L67.0937 127.161C67.0937 126.135 66.2615 125.303 65.2354 125.303L64.4102 125.303ZM65.2354 124.064C66.9456 124.064 68.332 125.451 68.332 127.161L68.332 127.986C68.332 129.697 66.9456 131.083 65.2354 131.083L64.4102 131.083C62.6999 131.083 61.3135 129.697 61.3135 127.986L61.3135 127.161C61.3135 125.451 62.6999 124.064 64.4102 124.064L65.2354 124.064Z" fill="#262626"/>
<path d="M64.2041 127.573L65.4424 127.573L65.4424 319.154L64.2041 319.154L64.2041 127.573Z" fill="#262626"/>
<path d="M390.594 220.403C391.962 220.403 393.071 221.512 393.071 222.88L393.071 225.358C393.071 226.726 391.962 227.835 390.594 227.835L388.117 227.835C386.748 227.835 385.639 226.726 385.639 225.358L385.639 222.88C385.639 221.512 386.748 220.403 388.117 220.403L390.594 220.403Z" fill="#262626"/>
<path d="M389.769 130.599C390.795 130.599 391.627 129.766 391.627 128.74L391.627 127.915C391.627 126.889 390.795 126.057 389.769 126.057L388.943 126.057C387.917 126.057 387.085 126.889 387.085 127.915L387.085 128.74C387.085 129.766 387.917 130.599 388.943 130.599L389.769 130.599ZM388.943 131.837C387.233 131.837 385.847 130.45 385.847 128.74L385.847 127.915C385.847 126.205 387.233 124.818 388.943 124.818L389.769 124.818C391.479 124.818 392.865 126.205 392.865 127.915L392.865 128.74C392.865 130.45 391.479 131.837 389.769 131.837L388.943 131.837Z" fill="#262626"/>
<path d="M389.769 322.18C390.795 322.18 391.627 321.348 391.627 320.322L391.627 319.497C391.627 318.47 390.795 317.638 389.769 317.638L388.943 317.638C387.917 317.638 387.085 318.47 387.085 319.497L387.085 320.322C387.085 321.348 387.917 322.18 388.943 322.18L389.769 322.18ZM388.943 323.418C387.233 323.418 385.847 322.032 385.847 320.322L385.847 319.497C385.847 317.786 387.233 316.4 388.943 316.4L389.769 316.4C391.479 316.4 392.865 317.786 392.865 319.497L392.865 320.322C392.865 322.032 391.479 323.418 389.769 323.418L388.943 323.418Z" fill="#262626"/>
<path d="M389.975 319.909L388.736 319.909L388.736 128.328L389.975 128.328L389.975 319.909Z" fill="#262626"/>
<path d="M424.948 364.175C424.435 363.287 423.298 362.982 422.409 363.495L421.694 363.908C420.806 364.421 420.501 365.558 421.014 366.446L421.427 367.161C421.94 368.05 423.077 368.354 423.965 367.841L424.68 367.429C425.569 366.916 425.873 365.779 425.36 364.89L424.948 364.175ZM426.433 364.271C427.288 365.752 426.78 367.646 425.299 368.501L424.585 368.914C423.104 369.769 421.21 369.261 420.354 367.78L419.942 367.066C419.087 365.584 419.594 363.691 421.075 362.835L421.79 362.423C423.271 361.568 425.165 362.075 426.02 363.556L426.433 364.271Z" fill="#262626"/>
<path d="M422.877 365.132L423.496 366.205L372.625 395.575L372.006 394.503L422.877 365.132Z" fill="#262626"/>
<path d="M810.307 153.586H764.934L756.464 190.489C734.43 165.478 701.258 146.914 665.026 146.34L663.299 146.326C575.578 146.326 523.55 215.898 523.55 294.544C523.55 372.576 574.768 441.675 661.249 442.75L663.299 442.763C700.202 442.763 734.08 424.008 756.464 398.6V571.017H810.307V153.586ZM579.812 294.544C579.813 237.677 613.691 194.724 670.558 194.724C707.461 194.724 736.5 215.293 756.464 237.677V351.412C736.5 373.796 707.461 394.364 670.558 394.364V393.126C706.78 393.126 735.398 373.042 755.226 350.936V238.151C735.398 216.045 706.779 195.963 670.558 195.963C642.46 195.963 620.121 206.562 604.793 224.123C589.448 241.702 581.051 266.35 581.051 294.544C581.051 322.738 589.448 347.386 604.793 364.965C620.121 382.526 642.46 393.126 670.558 393.126V394.364C614.135 394.364 580.343 352.08 579.818 295.875L579.812 294.544ZM811.545 572.255H755.226V401.819C732.661 426.219 699.444 444.001 663.299 444.001C574.75 444.001 522.312 373.722 522.312 294.544C522.312 215.366 574.751 145.088 663.299 145.088C699.747 145.088 733.217 163.17 755.79 187.886L763.947 152.348H811.545V572.255Z" fill="#262626"/>
<path d="M752.776 396.575H759.383V403.181H752.776V396.575Z" fill="#262626"/>
<path d="M726.996 431.245C727.722 431.971 728.899 431.971 729.625 431.245L730.208 430.662C730.934 429.936 730.934 428.759 730.208 428.034L729.625 427.45C728.899 426.724 727.722 426.724 726.996 427.45L726.413 428.034C725.687 428.759 725.687 429.936 726.413 430.662L726.996 431.245ZM725.537 431.537C724.328 430.328 724.328 428.367 725.537 427.158L726.121 426.574C727.33 425.365 729.291 425.365 730.5 426.574L731.084 427.158C732.293 428.367 732.293 430.328 731.084 431.537L730.5 432.121C729.291 433.33 727.33 433.33 726.121 432.121L725.537 431.537Z" fill="#262626"/>
<path d="M728.748 429.786L727.873 428.91L757.731 399.052L758.606 399.928L728.748 429.786Z" fill="#262626"/>
<path d="M752.776 192.408H759.383V185.802H752.776V192.408Z" fill="#262626"/>
<path d="M726.996 157.737C727.722 157.012 728.899 157.012 729.625 157.737L730.208 158.321C730.934 159.046 730.934 160.223 730.208 160.949L729.625 161.532C728.899 162.258 727.722 162.258 726.996 161.532L726.413 160.949C725.687 160.223 725.687 159.046 726.413 158.321L726.996 157.737ZM725.537 157.445C724.328 158.654 724.328 160.615 725.537 161.824L726.121 162.408C727.33 163.617 729.291 163.617 730.5 162.408L731.084 161.824C732.293 160.615 732.293 158.654 731.084 157.445L730.5 156.862C729.291 155.652 727.33 155.652 726.121 156.862L725.537 157.445Z" fill="#262626"/>
<path d="M728.748 159.197L727.873 160.073L757.731 189.931L758.606 189.055L728.748 159.197Z" fill="#262626"/>
<path d="M752.776 347.691H759.383V354.298H752.776V347.691Z" fill="#262626"/>
<path d="M726.996 382.362C727.722 383.088 728.899 383.088 729.625 382.362L730.208 381.779C730.934 381.053 730.934 379.876 730.208 379.151L729.625 378.567C728.899 377.842 727.722 377.842 726.996 378.567L726.413 379.151C725.687 379.876 725.687 381.053 726.413 381.779L726.996 382.362ZM725.537 382.655C724.328 381.445 724.328 379.484 725.537 378.275L726.121 377.692C727.33 376.482 729.291 376.482 730.5 377.692L731.084 378.275C732.293 379.484 732.293 381.445 731.084 382.655L730.5 383.238C729.291 384.447 727.33 384.447 726.121 383.238L725.537 382.655Z" fill="#262626"/>
<path d="M728.748 380.903L727.873 380.027L757.731 350.169L758.606 351.045L728.748 380.903Z" fill="#262626"/>
<path d="M752.776 241.289H759.383V234.682H752.776V241.289Z" fill="#262626"/>
<path d="M726.996 206.618C727.722 205.892 728.899 205.892 729.625 206.618L730.208 207.201C730.934 207.927 730.934 209.104 730.208 209.829L729.625 210.413C728.899 211.138 727.722 211.138 726.996 210.413L726.413 209.829C725.687 209.104 725.687 207.927 726.413 207.201L726.996 206.618ZM725.537 206.325C724.328 207.535 724.328 209.495 725.537 210.705L726.121 211.288C727.33 212.498 729.291 212.498 730.5 211.288L731.084 210.705C732.293 209.495 732.293 207.535 731.084 206.325L730.5 205.742C729.291 204.533 727.33 204.533 726.121 205.742L725.537 206.325Z" fill="#262626"/>
<path d="M728.748 208.078L727.873 208.953L757.731 238.811L758.606 237.936L728.748 208.078Z" fill="#262626"/>
<path d="M521.549 298.266C520.18 298.266 519.071 297.156 519.071 295.788L519.071 293.311C519.071 291.943 520.18 290.834 521.549 290.834L524.026 290.834C525.394 290.834 526.503 291.943 526.503 293.311L526.503 295.788C526.503 297.156 525.394 298.266 524.026 298.266L521.549 298.266Z" fill="#262626"/>
<path d="M522.374 371.554C521.348 371.554 520.516 372.386 520.516 373.412L520.516 374.237C520.516 375.263 521.348 376.096 522.374 376.096L523.199 376.096C524.225 376.096 525.058 375.263 525.058 374.237L525.058 373.412C525.058 372.386 524.225 371.554 523.199 371.554L522.374 371.554ZM523.199 370.315C524.909 370.315 526.296 371.702 526.296 373.412L526.296 374.237C526.296 375.948 524.909 377.334 523.199 377.334L522.374 377.334C520.664 377.334 519.277 375.948 519.277 374.237L519.277 373.412C519.277 371.702 520.664 370.315 522.374 370.315L523.199 370.315Z" fill="#262626"/>
<path d="M522.374 213.002C521.348 213.002 520.516 213.834 520.516 214.86L520.516 215.686C520.516 216.712 521.348 217.544 522.374 217.544L523.199 217.544C524.225 217.544 525.058 216.712 525.058 215.686L525.058 214.86C525.058 213.834 524.225 213.002 523.199 213.002L522.374 213.002ZM523.199 211.764C524.909 211.764 526.296 213.15 526.296 214.86L526.296 215.686C526.296 217.396 524.909 218.782 523.199 218.782L522.374 218.782C520.664 218.782 519.277 217.396 519.277 215.686L519.277 214.86C519.277 213.15 520.664 211.764 522.374 211.764L523.199 211.764Z" fill="#262626"/>
<path d="M522.168 215.273L523.406 215.273L523.406 373.826L522.168 373.826L522.168 215.273Z" fill="#262626"/>
<path d="M579.218 298.267C577.849 298.267 576.74 297.157 576.74 295.789L576.74 293.312C576.74 291.944 577.849 290.835 579.218 290.835L581.695 290.835C583.063 290.835 584.172 291.944 584.172 293.312L584.172 295.789C584.172 297.157 583.063 298.267 581.695 298.267L579.218 298.267Z" fill="#262626"/>
<path d="M580.044 346.781C579.018 346.781 578.186 347.613 578.186 348.64L578.186 349.465C578.186 350.491 579.018 351.323 580.044 351.323L580.869 351.323C581.895 351.323 582.728 350.491 582.728 349.465L582.728 348.64C582.728 347.614 581.895 346.781 580.869 346.781L580.044 346.781ZM580.869 345.543C582.579 345.543 583.966 346.929 583.966 348.64L583.966 349.465C583.966 351.175 582.579 352.562 580.869 352.562L580.044 352.562C578.334 352.562 576.947 351.175 576.947 349.465L576.947 348.64C576.947 346.929 578.334 345.543 580.044 345.543L580.869 345.543Z" fill="#262626"/>
<path d="M580.044 237.776C579.018 237.776 578.186 238.609 578.186 239.635L578.186 240.46C578.186 241.486 579.018 242.318 580.044 242.318L580.869 242.318C581.895 242.318 582.728 241.486 582.728 240.46L582.728 239.635C582.728 238.609 581.895 237.776 580.869 237.776L580.044 237.776ZM580.869 236.538C582.579 236.538 583.966 237.925 583.966 239.635L583.966 240.46C583.966 242.17 582.579 243.557 580.869 243.557L580.044 243.557C578.334 243.557 576.947 242.17 576.947 240.46L576.947 239.635C576.947 237.925 578.334 236.538 580.044 236.538L580.869 236.538Z" fill="#262626"/>
<path d="M579.838 239.785L581.076 239.785L581.076 349.317L579.838 349.317L579.838 239.785Z" fill="#262626"/>
<path d="M760.892 156.818H767.498V150.212H760.892V156.818Z" fill="#262626"/>
<path d="M752.775 574.318H759.382V567.712H752.775V574.318Z" fill="#262626"/>
<path d="M807.004 156.818H813.61V150.212H807.004V156.818Z" fill="#262626"/>
<path d="M807.004 574.318H813.61V567.712H807.004V574.318Z" fill="#262626"/>
<path d="M659.206 144.432C659.206 143.064 660.315 141.955 661.683 141.955H664.161C665.529 141.955 666.638 143.064 666.638 144.432V146.909C666.638 148.277 665.529 149.387 664.161 149.387H661.683C660.315 149.387 659.206 148.277 659.206 146.909V144.432Z" fill="#262626"/>
<path d="M577.66 145.258C577.66 144.232 576.828 143.4 575.802 143.4H574.977C573.95 143.4 573.118 144.232 573.118 145.258V146.083C573.118 147.11 573.95 147.942 574.977 147.942H575.802C576.828 147.942 577.66 147.11 577.66 146.083V145.258ZM578.898 146.083C578.898 147.794 577.512 149.18 575.802 149.18H574.977C573.266 149.18 571.88 147.794 571.88 146.083V145.258C571.88 143.548 573.266 142.162 574.977 142.162H575.802C577.512 142.162 578.898 143.548 578.898 145.258V146.083Z" fill="#262626"/>
<path d="M703.179 145.258C703.179 144.232 702.346 143.4 701.32 143.4H700.495C699.469 143.4 698.637 144.232 698.637 145.258V146.083C698.637 147.11 699.469 147.942 700.495 147.942H701.32C702.346 147.942 703.179 147.11 703.179 146.083V145.258ZM704.417 146.083C704.417 147.794 703.031 149.18 701.32 149.18H700.495C698.785 149.18 697.398 147.794 697.398 146.083V145.258C697.398 143.548 698.785 142.162 700.495 142.162H701.32C703.031 142.162 704.417 143.548 704.417 145.258V146.083Z" fill="#262626"/>
<path d="M700.908 145.052L700.908 146.29L575.39 146.29L575.39 145.052L700.908 145.052Z" fill="#262626"/>
<path d="M666.745 194.173C666.745 192.805 667.854 191.696 669.222 191.696H671.7C673.068 191.696 674.177 192.805 674.177 194.173V196.65C674.177 198.019 673.068 199.128 671.7 199.128H669.222C667.854 199.128 666.745 198.019 666.745 196.65V194.173Z" fill="#262626"/>
<path d="M618.23 194.999C618.23 193.973 617.398 193.141 616.372 193.141H615.547C614.521 193.141 613.688 193.973 613.688 194.999V195.824C613.688 196.85 614.521 197.683 615.547 197.683H616.372C617.398 197.683 618.23 196.85 618.23 195.824V194.999ZM619.469 195.824C619.469 197.534 618.082 198.921 616.372 198.921H615.547C613.837 198.921 612.45 197.534 612.45 195.824V194.999C612.45 193.289 613.837 191.902 615.547 191.902H616.372C618.082 191.902 619.469 193.289 619.469 194.999V195.824Z" fill="#262626"/>
<path d="M710.719 194.999C710.719 193.973 709.887 193.141 708.86 193.141H708.035C707.009 193.141 706.177 193.973 706.177 194.999V195.824C706.177 196.85 707.009 197.683 708.035 197.683H708.86C709.886 197.683 710.719 196.85 710.719 195.824V194.999ZM711.957 195.824C711.957 197.534 710.571 198.921 708.86 198.921H708.035C706.325 198.921 704.938 197.534 704.938 195.824V194.999C704.938 193.289 706.325 191.902 708.035 191.902H708.86C710.571 191.902 711.957 193.289 711.957 194.999V195.824Z" fill="#262626"/>
<path d="M708.447 194.793L708.447 196.031L615.96 196.031L615.96 194.793L708.447 194.793Z" fill="#262626"/>
<path d="M666.745 392.446C666.745 391.078 667.854 389.969 669.222 389.969H671.7C673.068 389.969 674.177 391.078 674.177 392.446V394.923C674.177 396.292 673.068 397.401 671.7 397.401H669.222C667.854 397.401 666.745 396.292 666.745 394.923V392.446Z" fill="#262626"/>
<path d="M618.23 393.271C618.23 392.245 617.398 391.413 616.372 391.413H615.547C614.521 391.413 613.688 392.245 613.688 393.271V394.097C613.688 395.123 614.521 395.955 615.547 395.955H616.372C617.398 395.955 618.23 395.123 618.23 394.097V393.271ZM619.469 394.097C619.469 395.807 618.082 397.193 616.372 397.193H615.547C613.837 397.193 612.45 395.807 612.45 394.097V393.271C612.45 391.561 613.837 390.175 615.547 390.175H616.372C618.082 390.175 619.469 391.561 619.469 393.271V394.097Z" fill="#262626"/>
<path d="M710.719 393.271C710.719 392.245 709.887 391.413 708.86 391.413H708.035C707.009 391.413 706.177 392.245 706.177 393.271V394.097C706.177 395.123 707.009 395.955 708.035 395.955H708.86C709.886 395.955 710.719 395.123 710.719 394.097V393.271ZM711.957 394.097C711.957 395.807 710.571 397.193 708.86 397.193H708.035C706.325 397.193 704.938 395.807 704.938 394.097V393.271C704.938 391.561 706.325 390.175 708.035 390.175H708.86C710.571 390.175 711.957 391.561 711.957 393.271V394.097Z" fill="#262626"/>
<path d="M708.447 393.065L708.447 394.304L615.96 394.304L615.96 393.065L708.447 393.065Z" fill="#262626"/>
<path d="M659.445 442.176C659.445 440.808 660.554 439.699 661.923 439.699H664.4C665.768 439.699 666.877 440.808 666.877 442.176V444.653C666.877 446.022 665.768 447.131 664.4 447.131H661.923C660.554 447.131 659.445 446.022 659.445 444.653V442.176Z" fill="#262626"/>
<path d="M577.899 443.002C577.899 441.976 577.067 441.144 576.041 441.144H575.216C574.19 441.144 573.357 441.976 573.357 443.002V443.827C573.357 444.853 574.19 445.686 575.216 445.686H576.041C577.067 445.686 577.899 444.853 577.899 443.827V443.002ZM579.138 443.827C579.138 445.537 577.751 446.924 576.041 446.924H575.216C573.506 446.924 572.119 445.537 572.119 443.827V443.002C572.119 441.292 573.506 439.905 575.216 439.905H576.041C577.751 439.905 579.138 441.292 579.138 443.002V443.827Z" fill="#262626"/>
<path d="M703.418 443.002C703.418 441.976 702.586 441.144 701.56 441.144H700.734C699.708 441.144 698.876 441.976 698.876 443.002V443.827C698.876 444.853 699.708 445.686 700.734 445.686H701.56C702.586 445.686 703.418 444.853 703.418 443.827V443.002ZM704.656 443.827C704.656 445.537 703.27 446.924 701.56 446.924H700.734C699.024 446.924 697.638 445.537 697.638 443.827V443.002C697.638 441.292 699.024 439.905 700.734 439.905H701.56C703.27 439.905 704.656 441.292 704.656 443.002V443.827Z" fill="#262626"/>
<path d="M701.147 442.795L701.147 444.034L575.629 444.034L575.629 442.795L701.147 442.795Z" fill="#262626"/>
</svg>
